/* XPM */
static char *b60fc94101f2428da75f8aee9fe099f3CfQM9v2SZmWRJSBc[] = {
/* columns rows colors chars-per-pixel */
"50 50 248 2 ",
"   c None",
".  c #0C1313",
"X  c #0B1414",
"o  c #0C1414",
"O  c #0D1414",
"+  c #0C1515",
"@  c #0D1515",
"#  c #0E1515",
"$  c #0E1615",
"%  c #0F1615",
"&  c #0E1616",
"*  c #101716",
"=  c #111717",
"-  c #111817",
";  c #141917",
":  c #121818",
">  c #121918",
",  c #131918",
"<  c #121919",
"1  c #141A18",
"2  c #151A18",
"3  c #151B18",
"4  c #161B18",
"5  c #141A1A",
"6  c #161B1B",
"7  c #161C19",
"8  c #171D1A",
"9  c #171C1B",
"0  c #161D1C",
"q  c #171D1C",
"w  c #181D1C",
"e  c #181E1D",
"r  c #191E1D",
"t  c #1A1E1D",
"y  c #1B1F1E",
"u  c #1D201C",
"i  c #1F211C",
"p  c #1C201E",
"a  c #1D211F",
"s  c #20231E",
"d  c #20221F",
"f  c #1B2120",
"g  c #1F2221",
"h  c #252520",
"j  c #252620",
"k  c #242724",
"l  c #262725",
"z  c #282721",
"x  c #272826",
"c  c #272827",
"v  c #292821",
"b  c #2B2922",
"n  c #282927",
"m  c #282C29",
"M  c #2C2C29",
"N  c #2C2C2A",
"B  c #2D2C2A",
"V  c #2D2D2A",
"C  c #312F2B",
"Z  c #30302A",
"A  c #35322F",
"S  c #3B352A",
"D  c #3C352A",
"F  c #38342D",
"G  c #3C362E",
"H  c #3A382E",
"J  c #363330",
"K  c #373430",
"L  c #373431",
"P  c #353733",
"I  c #393531",
"U  c #3B3733",
"Y  c #3C3731",
"T  c #363834",
"R  c #373935",
"E  c #40382C",
"W  c #443A2E",
"Q  c #443B2E",
"!  c #433B30",
"~  c #473D31",
"^  c #423C38",
"/  c #443D39",
"(  c #453F3A",
")  c #434032",
"_  c #4C4032",
"`  c #4E4232",
"'  c #4E4233",
"]  c #4F4333",
"[  c #4A4035",
"{  c #484434",
"}  c #4C4735",
"|  c #41403A",
" . c #48413C",
".. c #4A413D",
"X. c #564837",
"o. c #554738",
"O. c #51463F",
"+. c #574939",
"@. c #524D39",
"#. c #554E3A",
"$. c #5F4D3A",
"%. c #5F4E3A",
"&. c #55503F",
"*. c #614F3B",
"=. c #61543E",
"-. c #6A553F",
";. c #514742",
":. c #524842",
">. c #544943",
",. c #564D41",
"<. c #554A44",
"1. c #564F45",
"2. c #5D4E42",
"3. c #5C4E45",
"4. c #515049",
"5. c #5F524B",
"6. c #5A5548",
"7. c #5A574F",
"8. c #5E5B50",
"9. c #665740",
"0. c #655344",
"q. c #6C5640",
"w. c #685544",
"e. c #64554F",
"r. c #66574F",
"t. c #6A5E4A",
"y. c #715A42",
"u. c #715B47",
"i. c #745C44",
"p. c #735D4B",
"a. c #695952",
"s. c #6B5A52",
"d. c #6B5D51",
"f. c #6E5D54",
"g. c #715E52",
"h. c #776047",
"j. c #796046",
"k. c #75664A",
"l. c #796049",
"z. c #7D6248",
"x. c #736256",
"c. c #766255",
"v. c #766457",
"b. c #7A6350",
"n. c #796759",
"m. c #7D6B59",
"M. c #7C6A5A",
"N. c #7F6C5B",
"B. c #7E7052",
"V. c #7E766B",
"C. c #806449",
"Z. c #85684C",
"A. c #87694C",
"S. c #87694D",
"D. c #876A4C",
"F. c #896B4D",
"G. c #8C6D4F",
"H. c #836A57",
"J. c #8A6C51",
"K. c #8D6E51",
"L. c #8A6E5B",
"P. c #857554",
"I. c #887856",
"U. c #897956",
"Y. c #83705D",
"T. c #86725E",
"R. c #8E715A",
"E. c #8D7C59",
"W. c #947253",
"Q. c #977454",
"!. c #977557",
"~. c #987554",
"^. c #9A7655",
"/. c #9B7756",
"(. c #9E7957",
"). c #95765E",
"_. c #A07C5D",
"`. c #A07C5F",
"'. c #887D6E",
"]. c #847C70",
"[. c #AA815D",
"{. c #AD845E",
"}. c #AF855F",
"|. c #938364",
" X c #968065",
".X c #998366",
"XX c #9B8565",
"oX c #90816C",
"OX c #98846A",
"+X c #9E8768",
"@X c #8C8275",
"#X c #9B8C74",
"$X c #AB8361",
"%X c #A88262",
"&X c #A38C6A",
"*X c #B18660",
"=X c #B68A62",
"-X c #B48966",
";X c #B88B63",
":X c #BA8C64",
">X c #BE8F66",
",X c #BF9067",
"<X c #B39971",
"1X c #B99F72",
"2X c #BEA473",
"3X c #C19066",
"4X c #C09166",
"5X c #C19167",
"6X c #C39368",
"7X c #C59469",
"8X c #C6956A",
"9X c #C7956A",
"0X c #C7966B",
"qX c #C8966B",
"wX c #C9966B",
"eX c #C8976B",
"rX c #C9976B",
"tX c #CA976B",
"yX c #C9976C",
"uX c #CA976C",
"iX c #C9986A",
"pX c #C9986B",
"aX c #CA986B",
"sX c #C0A476",
"dX c #C3A777",
"fX c #C7AC78",
"gX c #C9AD79",
"hX c #D3B57E",
"jX c #A49684",
"kX c #C4AB83",
"lX c #D5B882",
"zX c #D8BB87",
"xX c #D1B689",
"cX c #D9BB88",
"vX c #DBBE8C",
"bX c #DCBF8F",
"nX c #C9B293",
"mX c #C7B5A2",
"MX c #CEBAA2",
"NX c #D1BEAA",
"BX c #DFC395",
"VX c #DEC4A0",
"CX c #E6CAA1",
"ZX c #E6CBA2",
"AX c #E9CEA7",
"SX c #EAD2B7",
"DX c #F1D7B6",
"FX c #F6DDC0",
/* pixels */
"      iXyXtXtX0XtX0XiXtX0XiXtX0XiXtX0XiX0XiXyX0XiXyX0XiXyX0XiXyX0XiXyX0XiXyXyXtXyX                  ",
"      tXtXtXtXtXtXyXyXtXtXyXtXyXyXtXtXyXtXtXtXtXtXtXtXtXtXtXtXtXtXtXtXtXtXtXiX0XyX                  ",
"      tXtX0X0XiX0XiXtXtXtXyXtXiX0XtXtX0XiXyXyXiX0XtXtXyXiX0X0XiXiXyXyXiX0XtXtXtXtX                  ",
"tXtXiXtXtXtXtXyXtXtX0XtX0XiXtX0XiXtXyXiX0XtXtX0XiXyX0XiXyXtXtXyX0XtXtX0XiXyX0XtXtXtX                ",
"pXiXtXyXtXpXyXtXtXtXtXyXtXtXtXtXyXtXtX0XiXyXtXtX0XtXtXyXtXtX0XiXyXtXtXtXpXpXpXpX0XpXtX              ",
"yXyX4X;X{.{.{.{.{.{.[.{.{.{.{.$X{.{.{.{.{.{.{.{.{.{.{.{.{.{.{.{.{.{.{.{.{.{.{.*X;X6XyXyX            ",
"tXtX{.W.j.i.i.i.i.i.i.i.i.i.i.i.i.i.i.i.i.i.i.i.i.i.i.i.i.i.i.i.i.i.i.i.i.i.i.C./.=XpXyX            ",
"tX0X(.y.W S S S S S S S S S D F S S S S S S S S S S S S S S S S S S D D D D D ] z.[.yXyX            ",
",X,XG.X.a 8 8 8 8 8 q q < & + o o o o o o o o o X o o o o o o o o o o o o o . s %.^.,X4X            ",
"A.A.h.9.#.@.@.@.&.6.8.4.P f o o o o o o o o o o o o o o o o o o o o o o o o X a W q.A.A.            ",
"' ' =.k.U.E.E.E.|.#XjX@X7.m X X o o o o o o o o o o o o o o o o o o o o o o o 8 v W ' '             ",
"3 3 } P.2XgXgXgXxXVXSXmXV.P X X o o o o o o o o o o o o o o o o o o o o o o o o o ; 3 8             ",
"o o { I.fXhXhXhXbXAXFXNXV.R + X o o o o o o o o o o o o o o o o o o o o o o o o o o o o             ",
"o o { I.fXhXhXhXbXAXFXNX].R + + o o o o o o o o o o o o o o o o o o o o o o o o o o o o             ",
"o o } I.fXhXhXhXbXAXDXVX].R + + o o o o o o . . o o o o o o o o o o o o o o o o X X o o             ",
"o o { P.fXhXhXhXbXCXDXMX@X| f g j z z z v j v z i 8 o o o o o o o o o o o o o o o X X *             ",
"o o { I.fXhXhXhXcXBXZXnXoX1.! ( +.*.*.*.*.*.*.%.W v o o o o o o o o o o o o o o o o o o             ",
"o o { I.fXhXhXhXlXcXbXkXOXs.3.p.J.^.^.^.^.^.^.Q.-.S o . o o o o o o o o o o o o o o o o             ",
"o o { I.fXhXhXhXhXhXhXsX+XM.c.).-X0XyXtXyXtXtX6XG._ * X o o o o o o o o o o o o o o o o             ",
"o o { I.fXhXhXhXhXhXhXsX+XM.c.).-XtXtXtXiX0XtX0XA._ * X o o o o o o o o o o o o o o o o             ",
"o o { I.fXhXhXhXhXhXhXsX+XM.g.).-XtXtXtX0XiXtX6XF._ ; X o o o o o o o o o o o o o o o &             ",
"o o { I.fXhXhXhXhXhXhXsX+XM.c.).-XtXyXiXtXyXtX6XF.' o X o o o o o o o o o o o o o o X X             ",
"o o { I.fXhXhXhXhXhXhXsX+XN.c.).-XiXyX0XtXyXtX0XF._ ; X o o o o o o o o o o o o o o o X             ",
"o o { I.fXhXhXhXhXhXhXsX+XN.c.).-X0XtXtX0XiXtX6XF._ ; o o o o o o o o o o o o o o o o -             ",
"o o { I.fXhXhXhXhXhXhXsX+XM.c.).-XyXtXtXtXtXiX4XF._ * o o o o o X X X o o o o o o o o o             ",
"o o { I.fXhXhXhXhXhXhX2X+XM.c.).-XiX0XyXtXtXyX0XK.o.a t t t t t t q : o o o o o o o o o             ",
"o o { I.fXhXhXhXhXhXlXsX+XM.g.).-XtX0XiXtX0X0X0XQ.w.I J J J J J J N g : o o o o o o o o             ",
"o o { I.fXhXhXhXhXhXhXsX+XM.c.).-XtXtXtXyXiXtX0X(.n.>.:.:.:.:.:.:./ N q o o o o o o o o             ",
"o o { I.fXhXhXhXhXhXhXsX+XM.c.).-XiXyXtX0XiXyX0X%XL.s.a.a.a.a.a.a.<.L q o o o o o o o *             ",
"o o { I.fXhXhXhXhXhXhX2X+XM.c.).-X0X0XtXtXtXtX0X%XL.s.a.a.a.a.a.a.<.L t o o o o o o X X             ",
"o o { I.fXhXhXhXhXhXlXsX+XM.c.).-XiXiXyXiXyXtX0X%XL.s.a.a.a.a.a.a.<.L t o o o o X X X X             ",
"o o { I.fXhXhXhXhXhXhX2X+XM.c.).-X0XtXtX0XtXtXtX%XL.a.a.a.a.a.a.a.<.L t o o o o X X X -             ",
"o o { I.fXhXhXhXhXhXhXsX+XM.c.).-XtXtXyXtXtXtX0X%XL.a.a.a.a.a.a.a.<.J t o o o o o o o -             ",
"o o { I.fXhXhXhXhXhXhXsX+XM.c.).-XyX0XiXiX0XtX0X%XL.a.a.a.a.a.a.a.<.L t o o o o o o o o             ",
"o X { I.fXhXhXhXhXhXhXsX+XM.c.).-XiXtXyXyX0XiX0X%XL.d.a.a.a.a.a.a.<.L t o o o o o o o o             ",
"o X ~ B.1XdXdXdXdXdXdX<X).n.c.).-X0XtXiXtXtXyX0X%XL.s.a.a.a.a.a.a.<.L q o o o o o o o o             ",
"o o H t.XX&X&X&X&X&X&X.X'.c.c.).-XtXtX0XtXiXtX0X%XL.s.a.a.a.a.a.a.<.L t X X o o o o X &             ",
"o o Z ,.m.Y.Y.Y.Y.Y.Y.M.c.d.c.).-XtXtXtXtX0XtX0X%XL.a.a.a.a.a.a.a.<.L t o X o o o o o o             ",
"o o c / 5.r.r.r.r.e.r.e.e.r.g.R.%X4X,X4X,X,X4X,X`.H.r.e.r.e.e.e.e.;.J t o o o o o o o o             ",
"o o c A |  .| ....(  . .(  .O.0.l.A.A.D.Z.Z.Z.Z.u.2..... . . . . .U c : o o o o o o o               ",
"    a c N N B B B B B B B N B G ~ ] ' ' ' ' ] ' Q A B N B B B N B c t : o o o o X                   ",
"      : - * ; ; : * * ; : ; : : ; 8 8 ; 4 4 ; 8 : - ; ; ; : * ; ; : o o o o o o o                   ",
"        X X o o o o o o o o o o o o o o . o o o o o o o X X o o X X o o o o o o                     ",
"                                                                                                    ",
"                                                                                                    ",
"                                                                                                    ",
"                                                                                                    ",
"                                                                                                    ",
"                                                                                                    ",
"                                                                                                    "
};
