/* XPM */
static char *_cc9c9da16bb4a97df58b080a4208271uB6gcZpmzQO9yY89[] = {
/* columns rows colors chars-per-pixel */
"50 50 199 2 ",
"   c None",
".  c #0C1414",
"X  c #0F1916",
"o  c #111716",
"O  c #141916",
"+  c #151B19",
"@  c #1C1D1A",
"#  c #211D1A",
"$  c #17251C",
"%  c #1A2A1F",
"&  c #18261D",
"*  c #24231D",
"=  c #2A251F",
"-  c #30241F",
";  c #25331F",
":  c #1C2021",
">  c #1D2E21",
",  c #1E3223",
"<  c #2D2A21",
"1  c #2B2C2E",
"2  c #252523",
"3  c #352621",
"4  c #382722",
"5  c #332C22",
"6  c #3B2A23",
"7  c #243A26",
"8  c #273F28",
"9  c #253424",
"0  c #373125",
"q  c #3C3326",
"w  c #303B2A",
"e  c #3E3937",
"r  c #492F26",
"t  c #432C25",
"y  c #443327",
"u  c #4C3027",
"i  c #413628",
"p  c #4C3228",
"a  c #453929",
"s  c #4C3D2C",
"d  c #533429",
"f  c #5E3B2E",
"g  c #613A2E",
"h  c #6A3E30",
"j  c #2B442B",
"k  c #2E4A2E",
"l  c #38512E",
"z  c #365633",
"x  c #3C5F38",
"c  c #375934",
"v  c #3C6139",
"b  c #4C4D1C",
"n  c #44421E",
"m  c #4B4325",
"M  c #53412E",
"N  c #514925",
"B  c #555C21",
"V  c #444A32",
"C  c #564430",
"Z  c #5A4631",
"A  c #5D4932",
"S  c #435133",
"D  c #5A563A",
"F  c #644231",
"G  c #6A4332",
"H  c #654D35",
"J  c #6A4D36",
"K  c #734333",
"L  c #7E4737",
"P  c #714D30",
"I  c #734E38",
"U  c #7A4E39",
"Y  c #695630",
"T  c #6E5338",
"R  c #72563A",
"E  c #7E563C",
"W  c #745A3C",
"Q  c #795B3D",
"!  c #765D36",
"~  c #446C3E",
"^  c #4B6838",
"/  c #616F2A",
"(  c #6B6522",
")  c #726828",
"_  c #6B633C",
"`  c #606A34",
"'  c #7E6534",
"]  c #73673F",
"[  c #7D7636",
"{  c #757534",
"}  c #564B49",
"|  c #5A4E48",
" . c #524B40",
".. c #5D5247",
"X. c #635449",
"o. c #625844",
"O. c #755D4B",
"+. c #4D6D40",
"@. c #5C6D41",
"#. c #4E7C46",
"$. c #497342",
"%. c #587243",
"&. c #7D6743",
"*. c #786841",
"=. c #786049",
"-. c #736240",
";. c #677947",
":. c #627746",
">. c #854C39",
",. c #8B4D3A",
"<. c #914F3C",
"1. c #84543C",
"2. c #8B523C",
"3. c #815B3E",
"4. c #96533E",
"5. c #806F2F",
"6. c #827E21",
"7. c #806E3F",
"8. c #886E38",
"9. c #816C32",
"0. c #966038",
"q. c #9D6A3B",
"w. c #867F33",
"e. c #887D33",
"r. c #877939",
"t. c #947B3F",
"y. c #9C7D35",
"u. c #A0723F",
"i. c #805F40",
"p. c #8C5B40",
"a. c #935D41",
"s. c #9A5A42",
"d. c #866242",
"f. c #846141",
"g. c #8A6543",
"h. c #8A6543",
"j. c #8E6443",
"k. c #8B6644",
"l. c #8C6343",
"z. c #856D44",
"x. c #8D6B44",
"c. c #80634B",
"v. c #946244",
"b. c #9E6446",
"n. c #9F6747",
"m. c #9C6646",
"M. c #926A46",
"N. c #916946",
"B. c #936A47",
"V. c #9F6947",
"C. c #966D48",
"Z. c #936D4B",
"A. c #996E49",
"S. c #9C6F49",
"D. c #9D7946",
"F. c #9E724B",
"G. c #9C724A",
"H. c #967643",
"J. c #A16D49",
"K. c #A16D49",
"L. c #A37C44",
"P. c #A2714B",
"I. c #A2724B",
"U. c #A3734C",
"Y. c #A1734C",
"T. c #A3744C",
"R. c #A1744C",
"E. c #A4764D",
"W. c #A4754D",
"Q. c #A4764D",
"!. c #A3794A",
"~. c #6A8438",
"^. c #7C8D35",
"/. c #76923C",
"(. c #78923B",
"). c #54854A",
"_. c #57884A",
"`. c #5A8948",
"'. c #5F8A46",
"]. c #688D43",
"[. c #888825",
"{. c #918A2E",
"}. c #948829",
"|. c #92952B",
" X c #9D942B",
".X c #949B2E",
"XX c #8B8034",
"oX c #9F8F31",
"OX c #9F8639",
"+X c #998235",
"@X c #8A9832",
"#X c #A59D26",
"$X c #A2952B",
"%X c #A89C28",
"&X c #A38432",
"*X c #A28939",
"=X c #A48839",
"-X c #A7A025",
";X c #A9A224",
/* pixels */
"                                                                                                    ",
"                                                                                                    ",
"                                                                                                    ",
"                              . . . . . . . . . . . . . . . .                                       ",
"                            o o o o X . O o O o O . O . o o o o                                     ",
"                          = 0 i a a a a a a i i a a a a a a i q 5                                   ",
"                      . . 5 M T Q Q Q Q Q O.Q Q Q Q Q Q Q Q Q Z i @ .                               ",
"                      O + q H k.T.T.T.T.T.T.Q.Q.T.T.E.T.T.T.G.Q s * + O                             ",
"                    5 i s H Q B.E.E.E.E.E.E.E.E.E.E.E.E.E.E.F.d.T M i q =                           ",
"                . * a H Q f.M.G.E.E.E.E.E.E.E.E.E.E.E.E.E.E.T.A.h.f.T M 5 . .                       ",
"              + + < M Q E.E.E.E.E.E.E.E.E.E.E.E.E.E.E.E.E.E.E.E.E.E.h.T q + +                       ",
"            < q a Z R x.E.E.E.E.E.E.E.E.E.E.E.E.E.E.E.E.E.E.E.E.E.T.C.Q H s a 0 *                   ",
"        . o q Z W f.M.A.Q.Q.E.E.E.E.E.E.E.E.E.E.E.E.E.E.E.E.E.E.E.E.Y.M.h.Q H a * .                 ",
"        . O q H M.E.E.E.Q.Q.E.E.E.E.E.E.E.E.E.E.E.E.E.E.E.E.E.E.E.E.E.E.E.E.Q M * . .               ",
"        . O q J M.Q.Q.E.Q.E.E.E.E.E.E.E.E.E.E.E.E.E.E.E.E.E.E.E.E.E.E.E.E.E.Q s = . .               ",
"        . o q H M.Q.E.E.E.E.E.E.E.E.E.E.E.E.E.E.E.E.E.E.E.E.E.E.E.E.E.E.E.E.Q s * . .               ",
"        . O q J M.E.E.E.E.E.E.E.E.E.E.E.E.E.E.E.E.E.E.E.E.E.E.E.E.E.Y.F.A.N.T s # . .               ",
"        . O q H M.E.E.E.E.E.E.E.E.E.E.E.E.E.E.E.E.E.E.E.E.E.E.E.E.E.A.d.R H a 5 @ . .               ",
"        . O q T M.E.E.E.E.E.E.E.E.E.E.E.E.E.E.E.E.E.E.E.E.E.E.E.E.E.N.T s < * @ o . .               ",
"        . X 6 H N.S.A.C.x.C.G.F.E.E.E.E.E.E.E.E.E.E.E.E.E.E.E.U.U.Y.j.H y @ @ @ @ @ @               ",
"        . o 6 H p.a.3.T A T d.G.E.E.E.E.E.E.E.E.E.E.E.E.E.E.E.Y.K.b.a.U h u u u u r t -             ",
"        . o 6 g ,.2.F p = s T x.E.E.E.E.E.E.E.E.E.E.E.E.E.E.U.K.b.s.s.,.>.L L L L K d - o .         ",
"      * * * p G 2.>.F y = a J k.Y.Y.J.U.U.U.U.E.E.E.E.E.E.E.U.m.p.,.,.<.<.4.4.4.4.,.g 4 o .         ",
"    * q s C T 1.v.a.E J M J 1.a.m.m.K.s.K.K.U.E.E.E.E.E.E.E.Y.l.K g g h >.<.4.4.4.>.g - o .         ",
". . 2 s R h.M.C.S.K.C.N.l.l.a.a.s.s.s.s.b.n.Y.E.E.E.E.E.E.E.F.Q C 5 3 d K s.4.4.4.>.g 4 o .         ",
". . = a T h.h.h.h.h.h.h.h.a.a.s.s.s.s.s.s.n.J.E.E.E.E.E.E.E.Y.Q f 5 < u g >.L L >.K d 3 o .         ",
". . @ 5 i M M M M C C C Z J 1.a.s.b.K.s.n.Y.Y.E.E.E.E.E.E.E.Y.l.I f d d d d u d u r t = o           ",
". . X + & * * = * * * * & a J l.U.J.J.Y.Y.Y.E.E.E.E.E.E.E.E.Y.m.s.,.h d 4 # # # # # #               ",
". . . . o . O @ * < = = 2 s T N.E.E.E.E.E.E.E.E.Q.Q.Q.Q.Y.K.K.v.p.>.h r = . . . o .                 ",
"    . . . o = q M A A A A R d.A.E.E.E.E.E.E.E.E.Q.Q.Q.Q.K.K.s.1.G d t - @ . . . .                   ",
"      . . o 5 A i.N.N.x.M.C.A.T.E.E.E.E.E.E.T.T.E.E.!.Q.V.b.s.G d < @ O o . . .                     ",
"        . o q Z Q f.i.f.f.x.H.L.L.G.G.Z.Z.Z.Z.Z.G.L.L.u.u.q.4.P d 2 + O o . .                       ",
"            < i s M M M s Y 9.y.OXH.z.=.O.O.O.=.z.t.*X*X&X&Xy.9.Z e 1 : + . .                       ",
"              @ @ @ @ $ & n ( }.oXXX-.| } } } ..*.XX#X%X#X#X#X6.! C e 1 : . .                       ",
"              . . O @ * 5 N ) }.oXXX&.X...o.o.@.[ {.#X;X;X;X;X|.[ -...l w % > &                     ",
"              . . @ < s H ! 8.y.OXD.x.=.&.*.r.XX{. X-X;X;X;X;X|.{.e.{ ` ^ z k 7 & .                 ",
"              . . * s T C.G.G.!.L.!.F.F.D.OX X X#X#X;X;X;X;X;X;X#X X.X^.~.#.v j & . .               ",
"              . . * s Q T.T.E.E.R.C.h.3.' 9.6.[.[.[ [.[.[.[..X.X.X.X@X(.]._.~ z 8 , %               ",
"              . . = s Q E.E.E.E.S.3.J s s m b b b b b B / ~././.(.(./.].`._.#.$.x z j , X           ",
"              . . * M Q E.E.E.E.B.T a $ O + + + O O O ; l / `.`.`.`._._._._.).).#.$.z 7 X .         ",
"                . * a H Q Q Q &.R Z 5 O . . X . . . . % j c ~ ~ %.:.;.;.;.;.;.;.;.@.S 9 + .         ",
"                    5 i a a a s a q <                 $ , 8 w S D -.&.&.&.&.&.&.&.W V 5 o .         ",
"                      O + o o o O O                     O X @ 6 Z >.4.4.4.4.4.4.4.>.f 6 o .         ",
"                      . . . . o .                         . o 4 g >.4.4.4.4.4.4.4.>.f 4 o .         ",
"                                                                                                    ",
"                                                                                                    ",
"                                                                                                    ",
"                                                                                                    ",
"                                                                                                    ",
"                                                                                                    "
};
