/* XPM */
static char *fb9efe2ddd734a12d3e4569fa69977e6U6XyO0LG6Zwc29oi[] = {
/* columns rows colors chars-per-pixel */
"50 50 191 2 ",
"   c None",
".  c #0C1414",
"X  c #121716",
"o  c #131916",
"O  c #1D1C19",
"+  c #141A18",
"@  c #211D1A",
"#  c #252817",
"$  c #282E17",
"%  c #24231C",
"&  c #2A221D",
"*  c #32251F",
"=  c #35301C",
"-  c #2B2921",
";  c #2B2523",
":  c #362721",
">  c #332C22",
",  c #3B2A22",
"<  c #213022",
"1  c #343323",
"2  c #3B3225",
"3  c #313D21",
"4  c #3A3130",
"5  c #452E25",
"6  c #492F27",
"7  c #413427",
"8  c #4C3127",
"9  c #433729",
"0  c #4D3328",
"q  c #4D3D2C",
"w  c #55352A",
"e  c #5A372B",
"r  c #513A2B",
"t  c #5A3A2C",
"y  c #4A3D3D",
"u  c #5E3C33",
"i  c #623A2E",
"p  c #673E30",
"a  c #683E30",
"s  c #37492F",
"d  c #3B5332",
"f  c #504C1D",
"g  c #5B5B1C",
"h  c #41412C",
"j  c #4B4328",
"k  c #54422F",
"l  c #5E452D",
"z  c #5A5823",
"x  c #5B4531",
"c  c #5F4932",
"v  c #514D38",
"b  c #554330",
"n  c #575E3A",
"m  c #724B2F",
"M  c #74582A",
"N  c #634332",
"B  c #6A4332",
"V  c #654D35",
"C  c #6A4F37",
"Z  c #66443B",
"A  c #744233",
"S  c #7A4535",
"D  c #724D37",
"F  c #7C4937",
"G  c #744D39",
"H  c #7C493B",
"J  c #6A5137",
"K  c #6E5339",
"L  c #6F5B3D",
"P  c #665E3F",
"I  c #775A30",
"U  c #71553A",
"Y  c #7B553B",
"T  c #77593C",
"R  c #7B5B3D",
"E  c #406139",
"W  c #49693E",
"Q  c #556239",
"!  c #616021",
"~  c #6A6729",
"^  c #7B7023",
"/  c #6E6939",
"(  c #736E30",
")  c #7C7337",
"_  c #7F7835",
"`  c #777038",
"'  c #7E703C",
"]  c #574847",
"[  c #564B49",
"{  c #5D4C48",
"}  c #4F5249",
"|  c #5C5543",
" . c #5D5F40",
".. c #55514A",
"X. c #6E4B43",
"o. c #604D48",
"O. c #664D47",
"+. c #625A41",
"@. c #6A5C43",
"#. c #785044",
"$. c #725B4B",
"%. c #7B5C4A",
"&. c #735045",
"*. c #59654A",
"=. c #4E7744",
"-. c #567B4B",
";. c #69614B",
":. c #776842",
">. c #677746",
",. c #68774B",
"<. c #7B734C",
"1. c #834B39",
"2. c #8B4D3A",
"3. c #86523C",
"4. c #8C543E",
"5. c #835A3E",
"6. c #8A5A3E",
"7. c #875336",
"8. c #96523E",
"9. c #98543F",
"0. c #9A5C3B",
"q. c #915B37",
"w. c #89682E",
"e. c #807E29",
"r. c #807424",
"t. c #8D623B",
"y. c #81633A",
"u. c #9A6E36",
"i. c #9B6338",
"p. c #976B36",
"a. c #817536",
"s. c #8C7634",
"d. c #867934",
"f. c #8E7A33",
"g. c #9E7134",
"h. c #957A32",
"j. c #997B32",
"k. c #9A7F3E",
"l. c #A17C31",
"z. c #A2793D",
"x. c #874F40",
"c. c #835F40",
"v. c #8B5B41",
"b. c #875644",
"n. c #985640",
"m. c #945D42",
"M. c #9B5D42",
"N. c #856242",
"B. c #8A6443",
"V. c #806548",
"C. c #8D6A4C",
"Z. c #936344",
"A. c #9D6345",
"S. c #936A46",
"D. c #9E6946",
"F. c #976E48",
"G. c #946B4A",
"H. c #9D6A48",
"J. c #996E49",
"K. c #9C6E49",
"L. c #807649",
"P. c #8D7243",
"I. c #97714B",
"U. c #9B704A",
"Y. c #9D724A",
"T. c #9B764B",
"R. c #A06A48",
"E. c #A16D49",
"W. c #A37547",
"Q. c #A37C45",
"!. c #A2714B",
"~. c #A3724C",
"^. c #A1744C",
"/. c #A0744C",
"(. c #A3744C",
"). c #A4754D",
"_. c #A4764D",
"`. c #A4764D",
"'. c #8D8821",
"]. c #96862F",
"[. c #968D2C",
"{. c #97882B",
"}. c #9C942A",
"|. c #928532",
" X c #A4882E",
".X c #A59628",
"XX c #A89D29",
"oX c #A78F35",
"OX c #A68A38",
"+X c #A48439",
"@X c #A58142",
/* pixels */
"                            . . . . . . . . . . . . . . . . . . . . . .                             ",
"                            . . . . . . . . . . . . . . . . . . . . . .                             ",
"                            > 1 2 2 , 2 2 2 2 2 > 2 2 2 1 2 1 , 2 2 2 -                             ",
"                        . > j c J J J J J J J J J J J J J J J J J V V q > .                         ",
"                      . . 1 c N.I.I.K.U.U.U.U.U.K.Y.I.J.I.Y.K.Y.U.U.N.c 1 . X                       ",
"                    & > > k U S.`.`.`.`.`.`.`.`.`.`.`._.`.`._._._._.S.U k 1 - &                     ",
"                . % 2 k V T N.U.`.`.`.`.`.`.`.`.`.`._._._._._._._._.U.B.T V k 7 % .                 ",
"              . . % q U G.J.U._.`.`.`.`.`.`.`.`.`.`._._._._._._._._._.U.J.S.U q % . .               ",
"              . . % k T _._._._._._._._._._._._.`.`._._._._._._._._._._._._.T q % . .               ",
"              . . % q R _._._._._._._._._._._._.`.`._._._._._._._._._._._._.%.q % . .               ",
"              . . % k T _._._._._._._._._._._._.`._._._._._._._._._._._._._.R j % . .               ",
"              . . % k T _._._._._._._._._._._._.`._._._._._._._._._._._._._.T k % . .               ",
"          . . . . % k T _._._._._._._._._._._._._._._._._._._._._._._._._._.T q % . . . .           ",
"        . . . . . % r R _._._._._._._._._._._._._._._._._._._._._._._._._._.R k % X . . . .         ",
"      O @ @ O @ O > x R _._._._._._._._._._._._._._._._._._._._._._._._._._.5.x > O O % @ @ @       ",
"    @ : 5 8 8 8 0 t U B._._._._._._._._._._._._._._._._._._._._._._._._._._.v.U t 8 8 8 8 5 , @     ",
". X @ 6 i A S S S 1.v.A.`.`.`.`._.`.`.`.`.`.`.`.`.`.`.`.`._._._.`.`.`.`.`.`.A.v.F S S S S i 6 & . . ",
". X @ w A 8.8.8.2.4.m.H.`.(.`.`._.U.U.G.F.J.E.~.~.!.~.!.K.J.S.J.Y.`.`.`.`.`.H.M.4.2.2.8.8.S 8 @ . . ",
". . @ w S 8.2.a i B Y Z.`.`.`.(.U.B.T V U 5.m.R.R.A.A.Z.5.U V R B.U.`.`.`._.B.Y B i A 1.8.a 0 & . . ",
". . @ w a 8.A e , 7 V y.`.`.(.(.I.R k 2 q B 3.M.M.M.M.3.B q 1 x R S.`.`.`.`.y.V 5 , e A 8.S 0 @ . . ",
". . @ 8 A 2.i 7 @ - k R ~.~.(.!.S.J 7 O > e F 9.8.n.n.F e : O 9 C S.~.(.(.(.R b - @ 5 a 2.A 6 & . . ",
". . @ 5 e i t r q r C 6.R.R.R.R.Z.Y c q b D 4.A.M.A.M.6.D b q N Y Z.R.A.R.R.6.C r q q t t w 5 % . . ",
"      * * > 0 x K R v.m.M.M.M.M.M.6.5.T 5.B.A.K.E.R.H.A.B.R T R v.M.M.M.0.M.m.5.R U x 0 , * &       ",
"        . o 2 V S.!.A.M.9.8.8.8.9.A.H.!././._.Y.~._._.~.`._.!.H.A.n.9.8.8.8.M.A.~.S.C 2 X .         ",
"        . o 2 J S.!.H.A.M.M.M.M.m.6.%.T U U U L K L U U U U U R 6.m.M.M.M.A.A.E.~.S.J 2 o .         ",
"        . o 2 V S._.!.E.R.E.R.R.Z.Y l 9 9 2 7 2 2 7 2 9 2 9 9 N Y Z.D.E.R.H.E.~._.S.J 2 o .         ",
"        . o 2 J S.`._.`.`.`.`.`.S.C 2 + X X X X X . X . X o + 2 J S.`.(.(.`.(.`._.S.V 2 X .         ",
"      & * : q x U R B.J.`.`.`.`.G.R c 2 2 > 2 2 2 2 2 2 2 2 2 c R J.`.`.`.`.F.B.R K b 1 o .         ",
". . @ 5 e i t r q k K B._._._._.U.S.R K J J J J J J J J J J J R S.U.(.`.`.`.B.K b 9 2 -             ",
". . @ 6 a 2.a 5 @ - k R _._._._.`./.U.U.J.Y.Y.J.U.U.J.K.U.U.Y.T./.(.(.(.`.`.R b - + o               ",
". . @ 5 i a t 8 : 5 N 5.K.H.G.G.C.C.C.C.G.G.E.E.E.E.E.W.Q.Q.@X@X@X@XQ.W./.E.R N 5 & &               ",
". . @ @ : 6 0 w e p G b.A.m.b.%.$.$.$.$.%.v.Z.M.A.A.M.R.z.+XoXoXoXoXOXQ.g.A.4.F p e 5 * X           ",
". . . o O O , e S 2.2.8.9.b.&.{ [ [ [ [ O.#.v.n.n.n.n.i.l. XXXXXXXXX.Xl.u.8.8.8.2.S e : X .         ",
". . . . . o : w a 1.2.q.i.t.R L +.+.+. .T R t.i.i.i.i.u.h.].[.[.[.[.|.j.u.i.0.0.9.1.i , X .         ",
"            & , 6 t M w. Xh.f.d._ _ _ _ d.f.].l.l.l.l.j.s.a.` ` ` ` a.s.h.l.z.i.0.2.t = X .         ",
"              O @ = g r..X.X.X}.}.}.}.}.}..X.X.XXX.X.X]._ / ..| | | P ' ]..Xl.g.0.1.i * X X         ",
"              . . # f ^ .X.X}.}.}.[.}.}.[.[.'.'.'.'.'.e./ *.} } [ ..@.' |.XX].p.7.A e , X .         ",
"              . . # j M j.j.s.a.) ) ) ) ( ~ ! g g g g ! Q Q *.>.;.$.V.P.@XOXs.I l 8 , & X           ",
"              . . % 8 m i.6.#.+.| | +.n v h , & $ $ $ = d W -.,.<.C.I.T.T.@X' x , @ @               ",
"              . . @ 5 i 2.H Z o.] ] ] ] y 4 * @ @ @ @ - s E W >.L.T.`.`._._.Y q % . .               ",
"                  @ : 6 e u Z X.X.X.X.#.Z i e 6 8 0 8 8 s s d Q :.I._._._._.T q % . .               ",
"                    @ & & 5 u S x.x.x.x.x.x.1.a a 1.a a r 1 < j L G._._._._.T k % . .               ",
"                      . . : e F 9.n.9.9.x.8.8.8.9.9.9.1.w ; o 2 J S.`._._._.T k % . .               ",
"                        . * e 1.9.9.9.9.n.n.8.n.9.9.9.a w * o 2 J S.`.`._._.R k % X                 ",
"                                                                                                    ",
"                                                                                                    ",
"                                                                                                    ",
"                                                                                                    ",
"                                                                                                    ",
"                                                                                                    "
};
