/* XPM */
static char *_ff293a094514ef0e0fef14a48381a6a3Uk6XDbmBiUMl7Qz[] = {
/* columns rows colors chars-per-pixel */
"50 50 179 2 ",
"   c None",
".  c #0C1414",
"X  c #141B16",
"o  c #1D1B19",
"O  c #141716",
"+  c #211E1A",
"@  c #1D231C",
"#  c #1C2A1D",
"$  c #282E17",
"%  c #26241E",
"&  c #2B231E",
"*  c #242C19",
"=  c #2C281F",
"-  c #252B17",
";  c #30241F",
":  c #2E3318",
">  c #38371B",
",  c #1D2F20",
"<  c #1F3223",
"1  c #2D2920",
"2  c #252221",
"3  c #342620",
"4  c #352D23",
"5  c #3D2A23",
"6  c #203323",
"7  c #233A26",
"8  c #3A3125",
"9  c #363028",
"0  c #373130",
"q  c #442D25",
"w  c #4B3127",
"e  c #433728",
"r  c #4D3229",
"t  c #443829",
"y  c #473B27",
"u  c #53342A",
"i  c #5B372C",
"p  c #5C392C",
"a  c #553D2A",
"s  c #4A3F3F",
"d  c #473D35",
"f  c #5B3B32",
"g  c #633B2E",
"h  c #6B3E30",
"j  c #2C472C",
"k  c #3E402C",
"l  c #354A2F",
"z  c #38502C",
"x  c #375835",
"c  c #444619",
"v  c #52531D",
"b  c #5B5B1D",
"n  c #6F6E1E",
"m  c #61621D",
"M  c #40412D",
"N  c #52412E",
"B  c #58402F",
"V  c #445326",
"C  c #535920",
"Z  c #5E5922",
"A  c #594530",
"S  c #5E4933",
"D  c #485E39",
"F  c #65542E",
"G  c #644C35",
"H  c #65443C",
"J  c #6D4F3B",
"K  c #734233",
"L  c #7B4536",
"P  c #744837",
"I  c #7B483A",
"U  c #75473B",
"Y  c #6A5137",
"T  c #66543C",
"R  c #6D533A",
"E  c #6F5F3E",
"W  c #615E3C",
"Q  c #73523A",
"!  c #78533A",
"~  c #7D5D3F",
"^  c #5B673F",
"/  c #546E34",
"(  c #54763B",
")  c #6B6127",
"_  c #676426",
"`  c #716D2F",
"'  c #6C7325",
"]  c #79752A",
"[  c #6C6638",
"{  c #756C36",
"}  c #6A7D31",
"|  c #7B7437",
" . c #574846",
".. c #5E4946",
"X. c #5E5742",
"o. c #6E4B43",
"O. c #734C43",
"+. c #685347",
"@. c #695B40",
"#. c #765C47",
"$. c #7B5942",
"%. c #506C40",
"&. c #4C7944",
"*. c #567F48",
"=. c #527D47",
"-. c #6D6A42",
";. c #746541",
":. c #667646",
">. c #727245",
",. c #797342",
"<. c #804737",
"1. c #824837",
"2. c #834A39",
"3. c #8B4D3A",
"4. c #904F3C",
"5. c #8E533F",
"6. c #8E5F3C",
"7. c #82533C",
"8. c #97523E",
"9. c #98533F",
"0. c #935C3B",
"q. c #867F26",
"w. c #8E613A",
"e. c #8E6B3A",
"r. c #826A36",
"t. c #9B6338",
"y. c #8A7934",
"u. c #837834",
"i. c #997736",
"p. c #9C7B31",
"a. c #997F39",
"s. c #A17D30",
"d. c #854F40",
"f. c #8B5040",
"g. c #805D40",
"h. c #8E5D41",
"j. c #995740",
"k. c #9B5C42",
"l. c #846142",
"z. c #8A6543",
"x. c #8F6845",
"c. c #9D6345",
"v. c #936B46",
"b. c #9F6847",
"n. c #966D49",
"m. c #9E6B49",
"M. c #9A7447",
"N. c #9B704A",
"B. c #A16D49",
"V. c #A17947",
"C. c #A4764D",
"Z. c #77842D",
"A. c #7D8E3A",
"S. c #7A813E",
"D. c #5C824A",
"F. c #678D42",
"G. c #6E8F40",
"H. c #6B8444",
"J. c #808427",
"K. c #8D8821",
"L. c #8A8623",
"P. c #938927",
"I. c #9A9927",
"U. c #9A932A",
"Y. c #9D9E29",
"T. c #94982A",
"R. c #8B8431",
"E. c #9F813B",
"W. c #839636",
"Q. c #8F9830",
"!. c #A59E26",
"~. c #A69728",
"^. c #A49628",
"/. c #A29329",
"(. c #A19F28",
"). c #A38E30",
"_. c #A6A126",
"`. c #A9A224",
"'. c #A9A224",
/* pixels */
"                                . . . . . . . . . . . . . . . . . .                                 ",
"                                . . . . . . . . . . . . . . . . . .                                 ",
"                              = 4 8 8 8 8 8 8 8 8 8 8 8 8 8 8 8 8 4 1                               ",
"                          . @ t S Y Y R Y Y R T Y Y Y Y Y Y Y Y Y S t o .                           ",
"                          . 2 a { B.m.N.m.N.N.N.N.N.N.N.N.N.N.N.m.$.N % .                           ",
"                        1 1 t G z.C.C.C.C.C.C.C.C.C.C.C.C.C.C.C.C.z.T t 4 1                         ",
"                      2 t A R r.n.C.C.C.C.C.C.C.C.C.C.C.C.C.C.C.C.n.r.Q A t %                       ",
"                    . 2 A $.N.M.C.C.C.C.C.C.C.C.C.C.C.C.C.C.C.C.C.C.m.n.;.N % .                     ",
"                  . . % A z.C.C.C.C.C.C.C.C.C.C.C.C.C.C.C.C.C.C.C.C.C.C.z.A = . .                   ",
"                  . . % N z.C.C.C.C.C.C.C.C.C.C.C.C.C.C.C.C.C.C.C.C.C.C.z.A % . .                   ",
"                  . . = A z.C.C.C.C.C.C.C.C.C.C.C.C.C.C.C.C.C.C.C.C.C.C.z.A % . .                   ",
"                  . . % A z.C.C.C.C.C.C.C.C.C.C.C.C.C.C.C.C.C.C.C.C.C.C.z.A % . .                   ",
"                . . . % A z.C.C.C.C.C.C.C.C.C.C.C.C.C.C.C.C.C.C.C.C.C.C.z.A % . . .                 ",
"              . . . . = N z.C.C.C.C.C.C.C.C.C.C.C.C.C.C.C.C.C.C.C.C.C.C.z.A % . . . .               ",
"            o o + + o 4 G x.C.C.C.C.C.C.C.C.C.C.C.C.C.C.C.C.C.C.C.C.C.C.z.G 4 + + o + o             ",
"          & 5 w w w r p ! v.C.C.C.C.C.C.C.C.C.C.C.C.C.C.C.C.C.C.C.C.C.C.v.! p w r w w 5 &           ",
"        . & u h L L L 2.h.b.C.C.C.C.C.C.C.C.C.C.C.C.C.C.C.C.C.C.C.C.C.C.B.h.2.h <.h h g ; .         ",
"      . . ; p 3.8.8.8.j.c.B.C.B.C.C.C.C.C.C.C.C.C.C.C.C.C.C.C.C.C.C.C.C.B.c.j.8.j.8.3.g ; . .       ",
"      . . ; p 3.8.8.8.j.k.c.B.B.C.C.C.C.C.C.C.C.C.C.C.C.C.C.C.C.C.B.B.B.B.j.j.8.8.8.3.i ; . .       ",
"      . . ; i 3.8.8.8.8.9.k.9.B.C.C.C.C.C.C.C.C.C.C.C.C.C.C.C.C.B.B.B.c.j.j.j.j.8.8.3.i ; . .       ",
"      . . ; p 3.8.8.3.3.4.8.9.B.C.C.B.B.C.C.B.B.C.B.C.B.C.C.B.C.B.B.c.j.j.j.4.4.4.8.3.i + . .       ",
"      . . ; p 3.3.L g K L 4.9.k.B.B.B.B.B.B.B.B.B.B.B.B.B.B.B.B.B.c.k.9.4.h h h h 3.3.g 3 . .       ",
"      . . ; p 3.1.g q w h 2.9.j.k.j.k.k.j.j.k.k.9.k.k.k.k.k.j.k.j.j.j.8.3.g w q h 3.4.i ; . .       ",
"      . . ; p 2.K w + % u 1.8.8.j.j.j.4.8.8.8.8.8.8.8.8.8.8.8.8.8.8.8.8.<.u + + r h 3.i ; . .       ",
"        . & r g i u q w h 2.8.8.8.8.8.8.8.8.8.8.8.8.8.8.8.8.8.8.8.8.8.8.3.h r q u i g w & .         ",
"          + ; 5 q u g h <.4.8.8.8.8.8.8.8.8.8.8.8.8.8.8.8.8.8.8.8.8.8.8.4.L h g u q 5 3 +           ",
"            . . ; i 2.8.4.8.8.8.8.8.8.8.8.8.8.8.8.8.8.8.8.8.8.8.8.8.8.8.8.8.4.3.u & . O             ",
"            . . + i 1.8.8.8.8.8.8.8.8.8.8.9.8.8.8.8.8.8.8.8.8.8.8.8.8.8.4.<.h h u q ; ;             ",
"            . . 2 i 2.8.8.8.8.8.8.8.8.8.8.8.9.8.8.9.8.8.8.8.8.8.8.8.8.8.3.h u q u g i w & .         ",
"            . . + i 2.8.8.8.8.8.9.8.8.8.8.8.8.8.8.8.8.8.9.8.8.8.8.j.8.8.1.i 2 + w h 1.i ; . .       ",
"            . . + q g K I 2.d.f.8.8.8.8.8.8.8.8.8.8.8.8.8.8.9.8.j.f.f.d.U i q 5 g L 3.i ; . .       ",
"            . . o 2 5 r f o.O.d.4.8.8.8.8.8.8.8.8.8.8.9.8.8.8.8.j.f.d.o.o.g g g K 3.3.i & . .       ",
"            . . X X O 2 0  . .o.d.8.8.8.8.8.8.8.8.8.8.8.9.9.9.8.8.3.O.+...o.I 3.4.4.3.p ; . .       ",
"            . . O , 1 9 d  .+.$.w.t.t.t.t.0.5.d.d.d.d.8.0.0.t.t.t.w.~ T T J P L L L h u & .         ",
"            . . o 9 N G +.#.;.v.i.s.s.s.s.e.~ O.o.o.o.~ e.p.s.s.s.p.y.u.{ F a r w w w 5 &           ",
"            . . 2 a $.v.n.n.n.).).^.^.^./.y.E  . . . .E y./.~.~.~.^.^.U.q.Z > + + + o o             ",
"            . . = S x.C.C.C.V.a.P.K.K.K.L.] [ T X.X.X.{ R.!.`.`.`._._.Y.Z.b - . . . .               ",
"            . . 1 S x.C.C.C.m.r._ b b b b _ ` | | | | R.U._.`.`.'._.Q.W.} V # . . .                 ",
"            . . 1 S v.C.C.C.v.Y y * $ $ : v ] U.U.U.U.U.(.!.`.`.'.Y.W.F.( l # . .                   ",
"              . = A $.x.x.x.r.A 1 . . . X c n T.U.I.Y.Y.Y.Y.Y.Y.Y.Q.A.H.( l # . .                   ",
"                % t A S S S A t = . . . X > v m ' Z.W.W.W.W.W.W.W.A.H.,.W M % . .                   ",
"                  % 1 3 1 1 1 %           $ : : z / F.F.F.F.F.F.F.G.z.z.Q t + . .                   ",
"                    . . . . .               O . 7 x &.&.D.D.D.D.D.:.[ 7.K r % .                     ",
"                      . . .                   . 6 j x D ^ -.>.>.>.[ T p u q +                       ",
"                                                # , 6 k S $.z.l.g.Q f 5 & &                         ",
"                                                  . . 3 g 8.8.8.j.L r o .                           ",
"                                                    . ; g 3.j.j.j.L r o .                           ",
"                                                                                                    ",
"                                                                                                    ",
"                                                                                                    "
};
