/* XPM */
static char *_5674ee4e67e4c3f9dbd4c3429df4b9bRSaZ5MMI3gH7qFKT[] = {
/* columns rows colors chars-per-pixel */
"50 50 157 2 ",
"   c #3B3643",
".  c #3C3743",
"X  c #4A4449",
"o  c #4C4649",
"O  c #4D474A",
"+  c #413C45",
"@  c #3A3543",
"#  c #453F47",
"$  c #4A4448",
"%  c #3D3844",
"&  c #4B4549",
"*  c #423C45",
"=  c #443E46",
"-  c #484348",
";  c #4E484A",
":  c #605450",
">  c #655752",
",  c #645551",
"<  c #534A4B",
"1  c #594E4E",
"2  c #665752",
"3  c #655652",
"4  c #615450",
"5  c #4E474A",
"6  c #645651",
"7  c #554C4C",
"8  c #584E4D",
"9  c #625451",
"0  c #584F4D",
"q  c #5F5350",
"w  c #494348",
"e  c #403B45",
"r  c #695953",
"t  c #6A5A53",
"y  c #5B504E",
"u  c #50494B",
"i  c #504A4B",
"p  c #6B5A54",
"a  c #6A5953",
"s  c #534B4C",
"d  c #4F494A",
"f  c #685853",
"g  c #5E524F",
"h  c #5A504E",
"j  c #605350",
"k  c #4B4649",
"l  c #403A45",
"z  c #524A4B",
"x  c #554D4C",
"c  c #4C474A",
"v  c #544C4C",
"b  c #4D484A",
"n  c #4F494B",
"m  c #564D4D",
"M  c #51494B",
"N  c #3F3A45",
"B  c #474248",
"V  c #65564F",
"C  c #725E52",
"Z  c #715E51",
"A  c #705E51",
"S  c #715E52",
"D  c #63554E",
"F  c #64564F",
"G  c #514A4B",
"H  c #4C4749",
"J  c #484248",
"K  c #7C6554",
"L  c #836955",
"P  c #826955",
"I  c #63554F",
"U  c #65574F",
"Y  c #675852",
"T  c #766153",
"R  c #836956",
"E  c #816855",
"W  c #846A56",
"Q  c #746052",
"!  c #756052",
"~  c #836A56",
"^  c #776253",
"/  c #494448",
"(  c #464147",
")  c #60544E",
"_  c #7B6454",
"`  c #7A6353",
"'  c #5F534E",
"]  c #5F5250",
"[  c #60534E",
"{  c #7A6454",
"}  c #61544E",
"|  c #454047",
" . c #6C5B50",
".. c #6B5A50",
"X. c #5D514F",
"o. c #544B4C",
"O. c #574E4D",
"+. c #413B45",
"@. c #4F484A",
"#. c #5A4F4E",
"$. c #635651",
"%. c #4D4749",
"&. c #625551",
"*. c #4D4649",
"=. c #50494A",
"-. c #4C4549",
";. c #635551",
":. c #574D4D",
">. c #66574F",
",. c #7E6654",
"<. c #7D6554",
"1. c #7D6654",
"2. c #756152",
"3. c #554D4D",
"4. c #7F6755",
"5. c #806855",
"6. c #594F4E",
"7. c #6A5950",
"8. c #826855",
"9. c #695950",
"0. c #534B4B",
"q. c #6E5C51",
"w. c #584E4C",
"e. c #5C514F",
"r. c #524B4B",
"t. c #6D5B51",
"y. c #3F3A44",
"u. c #544C4B",
"i. c #5C514D",
"p. c #5D514D",
"a. c #594F4C",
"s. c #5A4F4C",
"d. c #584E4E",
"f. c #705D51",
"g. c #6F5D51",
"h. c #62554E",
"j. c #62544E",
"k. c #464047",
"l. c #5D524F",
"z. c #6D5C51",
"x. c #6C5B51",
"c. c #786353",
"v. c #5F524E",
"b. c #675752",
"n. c #786253",
"m. c #5F524D",
"M. c #5B504F",
"N. c #685850",
"B. c #5B504D",
"V. c #5D524D",
"C. c #5E524D",
"Z. c #6F5C51",
"A. c #7B6554",
"S. c #5F524F",
"D. c #564C4D",
"F. c #423D46",
"G. c white",
/* pixels */
"  . . . .       . . . . . . .   . . . . . . .     . . . . . . .                     . . . . .       ",
". X o o O + @ # O o o o o o $ % & o o o o o O * = O o o o o o X .                 = O o o o -       ",
"& ; ; : > , < 1 2 3 3 3 3 > 4 5 6 > 3 3 3 3 2 7 8 2 3 3 3 3 > 9 o & & & & & & & & o 0 2 > q O w     ",
"e O 4 r t y u i q p a a t 2 s d 7 f t a a t y u u g p a a t 2 s ; ; ; ; ; ; ; ; ; O h p t r j k     ",
"@ l z x x d c c u v v 7 x s O b b v v 7 7 x n c c u v v 7 7 v O b b b b ; ; ; O O c u v v m M N     ",
"B . $ b k V C Z A S D k O u : : : j j u O k F C Z A S F k O u j : : : : G ; c F C Z A Z F H $       ",
"; J y G F K L P P L K I G 4 a a a a a 4 G F K L P P L K F G 4 a a a a a 4 G I K L P P L K U $       ",
"; u Y s T R E E E E W Q v p r r r r r p s ! ~ E E E E ~ ! s p r r r r r p v Q W E E E E R ^ /       ",
"; ( 8 G ) _ ~ L L W ` ' G ] t t t t a g u [ { W L L W { [ u g a t t t t ] G ' ` W L L ~ _ } $       ",
"|   / b k )  ..... .' k O d X.g g g X.d O k [  ..... .[ k O d X.g g g X.d O k '  ..... .) k / @     ",
"@ + o.8 8 O.n o o u O.8 8 8 x O O O m 8 8 8 O.u o o u O.8 8 8 m O O O x 8 8 8 O.u o o n O.8 s +.    ",
"+ O 2 t t t g G G q p t t t Y m d m Y t t t p g G G g p t t t Y m d m Y t t t p q G G g t t 6 H e   ",
"d @.3 r r r p #.y p r r r r r Y G f r r r r r p h h p r r r r r f G Y r r r r r p y #.p r r $.; %.. ",
"& ; > a r r Y O.8 Y r r r r r &.i &.r r r r r Y O.O.Y r r r r r &.i &.r r r r r Y 8 O.Y r a 6 ; w . ",
". X 4 2 > 2 O.b b 8 2 > > > &.@.; d &.> > > 2 O.b b O.2 > > > &.d ; @.&.> > > 2 8 b b O.2 2 j w     ",
"  . o d @.@.; ; ; ; @.@.@.@.@.; ; ; @.@.@.@.@.; ; ; ; @.@.@.@.@.; ; ; @.@.@.@.@.; ; ; ; @.d &       ",
"  . *.u u @.; ; =.G G G G G ; ; ; u u u u u @.; ; d G G G G G ; ; ; d u u u u @.; ; @.u u u -..     ",
". & ;.Y Y :.; b >.,.<.<.1.Q =.; u 3 Y Y Y Y O.; b V ,.<.<.1.2.=.; u 6 Y Y Y Y 8 ; ; #.f Y Y 9 $ .   ",
". o > r r f 3.>.4.E E E E 5.Q G 3 r r r r r f m V 4.E E E E 5.2.G 6 r r r r r f O.6.f r r a 6 ; $ . ",
". o 3 r r t :.7.L E E E E 8.{ z f r r r r r t O.9.L E E E E 8._ z f r r r r r t 6.y t r r r $.; o . ",
". %.> t t y d 0.q.~ P P L _ w.d 7 f a a a t e.n r.t.~ P P L _ w.d 7 Y a a a t e.u u g t a t 6 o y.  ",
"  l z m m u O c u.i.i.i.p.a.c O b v 7 x m m u O c 0.i.i.i.i.s.O O O v 7 x m m n c c u v 7 m M N     ",
"J B o b H #.: j q q 8 o c u j j j q q u O H 6.: j q q d.o c n j j j q q u O k D Z f.g.f.F k $       ",
"d d e.G 6.2 t a a t 2 6.G : a a a a a j G 6.2 t a a t 2 6.G j a a a a a : G h._ L P P L K F $       ",
"; ; 2 v ;.t r r r r t 9 v p r r r r r p v &.t r r r r t &.v p r r r r r p v Q W E E E E R ^ /       ",
"d d h G 8 2 t t t t > O.G q t t t t a q G 8 2 t t t t 2 8 G q a t t t t q G [ { ~ L L ~ _ j.$       ",
"( k.k O H 8 g g g g O.H O d l.g g g X.; c k O.g g g g O.H O d l.g g g l.d O k [ z.x.x.z.h.c X       ",
"  e o.O.O.O.u H H G O.O.O.O.7 O O O i.' ' ' ' 0.H H u O.O.O.O.7 O O O 7 O.O.O.m u o c c O ; X       ",
". O 2 t a t g i G g t a a t Y x d i.,.L P P W x.0.u g t a a t Y m d x Y t a a t g G ; ; ; ; X       ",
". o 3 r r r p 6.y p r r r r r Y 0.,.E E E E E W >.6.p r r r r r f G Y r r r r r p e.O ; ; ; X       ",
". o > a r r Y O.8 Y r r r r r &.z 2.5.E E E 8.1.} O.Y r r r r r ;.i &.r r r r r Y 6.O ; ; ; X       ",
". X 9 2 2 2 O.b b 8 2 2 2 2 &.d ; =.2._ _ _ K ) O b 8 2 2 2 2 ;.d ; d &.2 2 2 2 8 b ; ; ; ; X       ",
"  . o d d d ; ; ; ; d d d d @.; ; ; d =.=.=.=.@.; ; ; d d d d @.; ; ; @.d d d d ; ; ; ; ; ; X       ",
"    & ; ; ; ; ; @.d d d d d ; ; ; u G G G G d ; ; @.d d d d d ; ; ; d d d d d ; ; ; @.d d u & .     ",
"    & ; ; ; ; ; h Y 2 2 Y &.@.; z c.K K K 1.v.O b #.Y 2 2 Y &.d ; u 6 b.2 2 Y O.; b 6.Y 2 Y 4 $ .   ",
"    & ; ; ; O y f r r r r r 9 0.n.E E E E E ,.m.6.f r r r r r &.G 6 r r r r r Y O.6.f r r a 6 ; $ . ",
"    & ; ; ; O l.t r r r r r 2 u.4.E E E E E ~ h.M.t r r r r r 2 G f r r r r r t 6.y t r r r $.; o . ",
"    & ; ; ; ; G q t a a t 2 v d i.4.P P P R N.z u ] t a a t 2 v @.x f a a a t e.u u g t a t 6 o N   ",
"    & ; ; O c H u 7 7 m m v O O O B.p.p.V.C.z c O G m m m m v O O O v x m m m u O O i m m m z l     ",
". k.H ; c F f.Z.q.g.} k O u q q q g g d c k 6.j q q q 0 H O u q q q ] g u O H 0 j q q q 6.H /       ",
". %.y G D K L L L L _ j.G j a t t t a j G 6.2 t t t t 2 6.G j a t t t a j G 8 2 t t t t 2 6.$       ",
". o Y s T R E E E E W Q v p r r r r r p v &.t r r r r t &.v p r r r r r p v 9 t r r r r t 6 $       ",
". %.y G h.A.L L L R _ } G j t t t t a q G 8 2 t t t t 2 8 G q a t t t t j G 8 2 t t t t 2 6.$       ",
"  | k O k h.q.q.q.q.} k O u g ] q ] g d O H 8 q q q q 6.O ; u ] q q ] g u O H 8 q q q q 8 H /       ",
"  +.o.O.:.m n H H u m :.:.:.7 b O O 7 :.:.:.m u O O O b ; ; ; O O O O v :.:.:.m i O O u m O.z e     ",
". - q r t p g G G ] p t t t 2 @.d m f t t t p g G ; ; ; ; ; ; ; ; d x Y t t t p ] G G g p p 3 k     ",
"    B S.6 6 > 7 D.> 6 6 6 6 4 ; o &.6 6 6 6 6 > m / X X X X X X X & 9 6 6 6 6 6 > D.7 > 6 6 q &     ",
"      J & & o * F.o & & & & & / % $ & & & & & o F.@               . / & & & & & o F.* o & & & w     ",
"                                                                                                    ",
"                                                                                                    "
};
