/* XPM */
static char *_e1aa4892ce84d73d20bdc1f31648697f9n7eV58wQISC3Qb[] = {
/* columns rows colors chars-per-pixel */
"50 50 190 2 ",
"   c None",
".  c #0C1414",
"X  c #0F1917",
"o  c #131716",
"O  c #141917",
"+  c #151A19",
"@  c #1C1D1A",
"#  c #211E1B",
"$  c #16241C",
"%  c #1D221C",
"&  c #1A2A1E",
"*  c #24231D",
"=  c #2B241E",
"-  c #2D2B1E",
";  c #31241F",
":  c #2E3219",
">  c #1D2821",
",  c #1E3122",
"<  c #292720",
"1  c #2D2A20",
"2  c #242626",
"3  c #372720",
"4  c #342E23",
"5  c #3C2A23",
"6  c #243224",
"7  c #243A26",
"8  c #263E28",
"9  c #2C3826",
"0  c #3C3326",
"q  c #3F3628",
"w  c #383D2E",
"e  c #363434",
"r  c #422C24",
"t  c #4B3127",
"y  c #433628",
"u  c #4D3429",
"i  c #46392A",
"p  c #4C3D2C",
"a  c #523329",
"s  c #5A372B",
"d  c #503F2D",
"f  c #663C2F",
"g  c #673E30",
"h  c #6C3F31",
"j  c #37401E",
"k  c #2E492D",
"l  c #2B452B",
"z  c #304C2F",
"x  c #395935",
"c  c #385432",
"v  c #3E633A",
"b  c #43401F",
"n  c #605F1E",
"m  c #61611D",
"M  c #454327",
"N  c #52412E",
"B  c #485B2B",
"V  c #5F512B",
"C  c #4C4B39",
"Z  c #574430",
"A  c #5B4531",
"S  c #5E4932",
"D  c #574A30",
"F  c #475636",
"G  c #525F33",
"H  c #605824",
"J  c #624331",
"K  c #6C4232",
"L  c #634C35",
"P  c #6A4C35",
"I  c #744333",
"U  c #7B4F39",
"Y  c #774B37",
"T  c #655234",
"R  c #6B5435",
"E  c #6F5439",
"W  c #665E38",
"Q  c #73553A",
"!  c #7B533A",
"~  c #76593C",
"^  c #7D5C3E",
"/  c #436B3E",
"(  c #46643B",
")  c #5C673F",
"_  c #57773B",
"`  c #6D6625",
"'  c #666820",
"]  c #707828",
"[  c #686A35",
"{  c #766838",
"}  c #7A7238",
"|  c #7D7636",
" . c #494340",
".. c #5A4D4A",
"X. c #5D5445",
"o. c #615A41",
"O. c #755C4B",
"+. c #795F4A",
"@. c #4E7C46",
"#. c #497442",
"$. c #577F48",
"%. c #567D47",
"&. c #6D6042",
"*. c #6D6E44",
"=. c #756443",
"-. c #717145",
";. c #824A38",
":. c #8D4E3B",
">. c #904F3C",
",. c #84533C",
"<. c #835B3F",
"1. c #885A3F",
"2. c #96523E",
"3. c #98523F",
"4. c #826C34",
"5. c #996639",
"6. c #857838",
"7. c #847831",
"8. c #967735",
"9. c #A1733F",
"0. c #825F40",
"q. c #8A5B40",
"w. c #955C42",
"e. c #9B5E43",
"r. c #846141",
"t. c #8E6143",
"y. c #896543",
"u. c #8D6744",
"i. c #8D6644",
"p. c #826946",
"a. c #8D6942",
"s. c #926243",
"d. c #9E6746",
"f. c #9E6546",
"g. c #916A46",
"h. c #956C47",
"j. c #946C47",
"k. c #946C47",
"l. c #9F6847",
"z. c #9D6847",
"x. c #936D4B",
"c. c #9F6948",
"v. c #9B6D49",
"b. c #927641",
"n. c #96714A",
"m. c #9A7049",
"M. c #9D714B",
"N. c #9C7349",
"B. c #977642",
"V. c #A06A48",
"C. c #A16D49",
"Z. c #A16E4A",
"A. c #A27C45",
"S. c #A1724B",
"D. c #A0734C",
"F. c #A3754C",
"G. c #A1744C",
"H. c #A4754D",
"J. c #A4764D",
"K. c #A4764D",
"L. c #6C8037",
"P. c #7A8830",
"I. c #76923C",
"U. c #5C824A",
"Y. c #5A8949",
"T. c #588748",
"R. c #658C43",
"E. c #698E42",
"W. c #8E872F",
"Q. c #938E23",
"!. c #948B2A",
"~. c #91812E",
"^. c #9C932B",
"/. c #9D9D29",
"(. c #969324",
"). c #878032",
"_. c #888730",
"`. c #9B8237",
"'. c #9D8F30",
"]. c #9F863A",
"[. c #978537",
"{. c #829636",
"}. c #8B9832",
"|. c #A39C27",
" X c #A79929",
".X c #A59729",
"XX c #A38433",
"oX c #A38839",
"OX c #A7A025",
"+X c #A9A224",
/* pixels */
"                                                                                                    ",
"                                                                                                    ",
"                                                                                                    ",
"                                          . . . . . . . . . . . . . . .                             ",
"                                        . . . . . . . . . . . . . . . . .                           ",
"                                      = 1 4 4 4 4 4 4 4 4 4 4 4 4 4 4 4 1                           ",
"                                    + 4 N L L L L T L L L L L L L L L A i 1 .                       ",
"                                  . O y T u.h.h.h.h.h.h.h.h.h.h.h.h.x.4.A 4 . .                     ",
"                                = 1 4 Z ^ M.J.J.J.J.J.J.J.J.J.J.J.J.J.j.E p - =                     ",
"                              % 0 d L ~ i.F.J.J.J.J.J.J.J.J.J.J.J.J.J.N.r.E D p 4 O                 ",
"                            . % p Q g.h.M.F.J.J.J.J.J.J.J.J.J.J.J.J.J.M.N.j.y.L y O .               ",
"                          * = 0 S r.J.J.F.F.J.J.J.J.J.J.J.J.J.J.J.J.J.J.F.F.M.+.N 1 = *             ",
"                        1 y N L ^ u.J.J.J.J.J.J.J.J.J.J.J.J.J.J.J.J.J.J.J.J.M.y.Q S p 0 %           ",
"                    . . 1 Z ^ u.j.N.J.J.J.J.J.J.J.J.J.J.J.J.J.J.J.J.J.J.J.J.F.N.j.y.E p * .         ",
"                    . . 4 S u.J.J.J.J.J.J.J.J.J.J.J.J.J.J.J.J.J.J.J.J.J.J.J.J.J.J.J.^ N * . .       ",
"                    . . 4 S u.J.J.J.J.J.J.J.J.J.J.J.J.J.J.J.J.J.J.J.J.J.J.J.J.J.J.F.^ N * . o       ",
"                    . . 4 L u.F.J.J.J.J.J.J.J.J.J.J.J.J.J.J.J.J.J.J.J.J.J.J.J.J.J.J.+.d * . .       ",
"                    . . 1 N r.v.M.M.J.J.J.J.J.J.J.J.J.J.J.J.J.J.J.J.J.J.J.J.J.J.J.J.<.d * . .       ",
"                    . . * 0 A R =.j.J.J.J.J.J.J.J.J.J.J.J.J.J.J.J.J.J.J.J.J.J.J.J.J.^ N * . .       ",
"                    . . O % ; y P i.J.J.J.J.J.J.J.J.J.J.J.J.J.J.J.J.J.J.J.J.J.J.J.F.{ N * . .       ",
"                    O O o o o = Z <.F.J.F.J.J.J.J.J.J.J.J.J.J.J.J.J.J.J.M.N.M.S.F.F.<.d * . .       ",
"                  = 3 r r r r a K 1.V.C.Z.F.J.J.J.J.J.J.J.J.J.J.J.J.J.v.i.^ R ! q.f.! p # . .       ",
"              . O ; a g h h h h ;.1.e.d.C.J.J.J.J.J.J.J.J.J.J.J.J.J.F.h.Q Z y A U w.Y u # . .       ",
"              . O r f >.3.3.3.2.2.2.2.e.V.F.J.J.J.J.J.J.J.J.J.F.J.J.J.u.S 4 O 5 g >.I u # . o       ",
"              . o r f >.2.2.3.>.;.I h ! t.F.J.J.J.J.J.J.J.F.V.V.V.V.V.s.Q A y S ! w.,.L p q 4 =     ",
"              . o 5 f >.2.2.3.:.h a r J <.M.J.J.J.J.J.J.F.C.V.e.e.e.f.2.1.~ Q <.s.c.s.q.~ L p 1 . . ",
"              . O 5 f >.2.2.3.;.s ; + y E M.J.J.J.J.J.J.C.V.e.e.3.3.3.3.f.l.S.S.F.F.F.F.F.i.S 4 . . ",
"              . O 3 a g h h h f a r 5 A ^ M.J.J.J.J.J.J.F.V.V.e.e.e.e.w.1.<.~ ~ ~ ~ ~ ~ ~ L i < . . ",
"                  = 3 r r r r t a s f U t.M.J.J.J.J.J.J.F.Z.C.V.V.d.V.s.Q A i i i i i i i q - @ . . ",
"                    O O o o o # t I 2.w.c.F.J.J.J.J.J.J.J.F.J.F.J.S.S.i.L 0 + @ + O O + + o . . . . ",
"                      . . . . @ 3 s I ,.w.c.Z.Z.F.J.J.J.J.J.J.J.J.J.J.g.Q p 4 4 4 4 - @ o . . . . . ",
"                        . . . + * 3 t f U e.V.C.F.J.J.J.J.J.J.J.J.J.J.M.y.Q L L L L p 4 @ . . .     ",
"                          . . o + + @ r h w.e.5.C.H.H.H.H.H.H.H.H.J.J.J.S.v.h.x.h.h.Q i % . .       ",
"                          . . . + @ 2 t I 1.9.9.A.A.A.S.x.x.x.x.x.D.A.N.m.4.4.0.0.0.P p * .         ",
"                          . . o @ 2 e D { 8.8.XXoX].b.p.O.O.O.O.-.b.].[.4.T N N d N p 0 %           ",
"                          . . + 2 e C W 7..X+X X X^.7.O.........O.6.'.!.` b % * 2 # # @             ",
"                          & & 6 w C G } W.|.+X+X+X/.).[ o.X.o...=.6.'.!.` M = % + . .               ",
"                        > 8 l c ) [ 6.).^.+X+X+X+X.X!.).| =.=.=.p.b.].`.4.R N q = o .               ",
"                    . . > z / _ _ W.^./.|.+X+X+X+X+X.X/.^.[.B.n.m.N.A.A.B.g.r.A 4 o .               ",
"                    $ $ 8 x @.Y.I.}./././././.(.Q.Q.Q.Q.Q.~.8.u.j.N.F.J.J.J.M.E y + .               ",
"                  , l l x v T.T.E.I.{.{.{.{.P.] ' m m m m V T S E r.N.F.J.J.M.E y O .               ",
"              . X 7 c / / T.T.T.Y.R.E.E.R.E._ B j : : : : : - 1 p E j.F.J.F.M.E y O X               ",
"              . O 9 x $.U.U.T.$.U.U.T.T.T.@.v l & . . . . . . . 1 A r.j.h.h.u.P q O .               ",
"              . X 9 C -.-.-.-.*.-.-.*.o.F x z 8 $ . . . . . . . 1 i S T L L L p 4 +                 ",
"              . O 4 A <.r.q.q.r.q.q.0.L M 6 , ,                   1 4 4 4 4 4 - =                   ",
"              . O 5 f >.e.>.2.w.2.2.:.g 5 O .                     . . . . . . .                     ",
"                O 5 f >.3.3.w.3.e.>.>.g 4 O                         . . . . .                       ",
"                                                                                                    ",
"                                                                                                    ",
"                                                                                                    "
};
