/* XPM */
static char *dc3acba1b8934cf4ebb45fa0c0d9be0dDdHi8KKCZUXc7WQd[] = {
/* columns rows colors chars-per-pixel */
"50 50 168 2 ",
"   c None",
".  c #0C1414",
"X  c #181D1B",
"o  c #1F241F",
"O  c #23201A",
"+  c #212520",
"@  c #262A24",
"#  c #2C2D26",
"$  c #3D2A23",
"%  c #39392F",
"&  c #33342B",
"*  c #3C3C31",
"=  c #472E25",
"-  c #433022",
";  c #5D3F27",
":  c #573928",
">  c #403E33",
",  c #6C3F31",
"<  c #55432B",
"1  c #5B442C",
"2  c #484638",
"3  c #504D3D",
"4  c #534733",
"5  c #6D472B",
"6  c #744C2F",
"7  c #694730",
"8  c #754233",
"9  c #534F40",
"0  c #5B5644",
"q  c #5F5946",
"w  c #675F4B",
"e  c #6E654F",
"r  c #736149",
"t  c #756B53",
"y  c #7D7259",
"u  c #814838",
"i  c #924F3C",
"p  c #8D5732",
"a  c #97523E",
"s  c #9A553F",
"d  c #9D643F",
"f  c #AC683A",
"g  c #B76D3D",
"h  c #B96F3E",
"j  c #E76A37",
"k  c #E76D3A",
"l  c #E7713E",
"z  c #EA733C",
"x  c #9C5740",
"c  c #9E5841",
"v  c #9F6C47",
"b  c #80745A",
"n  c #877A5E",
"m  c #9E7E53",
"M  c #A76143",
"N  c #AD6644",
"B  c #A16E41",
"V  c #B26A46",
"C  c #B76F48",
"Z  c #B86F48",
"A  c #A37542",
"S  c #BE744A",
"D  c #8D7F62",
"F  c #C0764A",
"G  c #C7794A",
"H  c #DB7E4C",
"J  c #E87441",
"K  c #EE7F43",
"L  c #AEBE37",
"P  c #AFBE39",
"I  c #B3BE3B",
"U  c #BCBB3E",
"Y  c #BDBE43",
"T  c #BFBF49",
"R  c #958566",
"E  c #998969",
"W  c #9B8461",
"Q  c #A89673",
"!  c #B09C77",
"~  c #B89972",
"^  c #BCA67E",
"/  c #B5A07A",
"(  c #CD824E",
")  c #CA8C5F",
"_  c #D28650",
"`  c #D78B51",
"'  c #DD9253",
"]  c #E9814E",
"[  c #F38D4B",
"{  c #E98A57",
"}  c #E19454",
"|  c #EA9C57",
" . c #ED9F58",
".. c #E8955A",
"X. c #C2BA40",
"o. c #CDB846",
"O. c #C8BD4B",
"+. c #D6B649",
"@. c #DEB54D",
"#. c #DCB750",
"$. c #D6BA53",
"%. c #D8B950",
"&. c #D4BF5E",
"*. c #E1B54F",
"=. c #EFA95F",
"-. c #F2A559",
";. c #FFAF5D",
":. c #E2B652",
">. c #ECB354",
",. c #ECB75E",
"<. c #E1B959",
"1. c #F3B157",
"2. c #F4B25B",
"3. c #FAB05B",
"4. c #EA9663",
"5. c #EB9A66",
"6. c #E8BA63",
"7. c #FDB262",
"8. c #FCB56A",
"9. c #F2BA6A",
"0. c #ECA673",
"q. c #ECAB78",
"w. c #EFBE71",
"e. c #ECB37A",
"r. c #FABB74",
"t. c #F5BD77",
"y. c #B6C144",
"u. c #B8C147",
"i. c #BCC24B",
"p. c #BFC351",
"a. c #C2C355",
"s. c #C6C55C",
"d. c #CCC057",
"f. c #CCC665",
"g. c #CFC76A",
"h. c #D2C569",
"j. c #D2C86F",
"k. c #D8C164",
"l. c #D6C975",
"z. c #DACB7C",
"x. c #DEC572",
"c. c #EDC076",
"v. c #E8C57D",
"b. c #F7C17F",
"n. c #C2AB82",
"m. c #CDB388",
"M. c #D3B98C",
"N. c #DABF91",
"B. c #EDB986",
"V. c #E5BE88",
"C. c #EDBA87",
"Z. c #DECB83",
"A. c #DDC192",
"S. c #E1CC87",
"D. c #EEC08D",
"F. c #E4CD8B",
"G. c #EBCA8B",
"H. c #F5C384",
"J. c #F4C78B",
"K. c #F3C88E",
"L. c #E2C595",
"P. c #EEC693",
"I. c #E7CE90",
"U. c #EACE95",
"Y. c #EECD9A",
"T. c #F1CC95",
"R. c #F0CE99",
"E. c #EFD09D",
/* pixels */
"                                      . . . . . . . . . . . .                                       ",
"                                      . . . . . . . . . . . .                                       ",
"                                    - : ; ; ; ; 5 ; ; ; ; ; : -                                     ",
"                                . O 1 p f f f f f f f f f f p 5 O .                                 ",
"                                . O 5 g [ [ [ [ [ [ [ [ [ [ g 5 O .                                 ",
"                                . O 5 g [ [ [ [ [ [ [ [ [ [ g 5 O .                                 ",
"                                . O 5 g [ [ [ [ [ [ [ [ [ [ g 5 O .                                 ",
"                                X # 6 h [ [ [ [ [ [ [ [ [ [ g 6 # X                                 ",
"                              2 0 r M G K K K K K K K K K K G v r 0 2                               ",
"                          . # e R ~ ) H z l l J z z z z z z H ) ~ R w # .                           ",
"                        . . # t ^ P.0.{ l k j j j j j j k k { 0.P.^ t & . .                         ",
"                      . . . # t ^ R.B.0.4.] J j j j j J ] ..0.B.Y.^ t # . . .                       ",
"                    . . . . # t ^ R.P.C.B.5.K j j j k ] 5.B.C.P.R.^ t # . . . .                     ",
"                  o + o o o * b n.E.E.E.R.q.4.J J J J { q.Y.E.R.E.n.b * o + o o o                   ",
"                & 9 w e e e y Q M.E.E.E.R.C.0.4.4.4.4.0.C.R.E.E.E.M.Q y e e e w 9 &                 ",
"              . * t Q ^ ^ ^ n.M.L.E.E.E.E.P.C.B.B.B.B.P.P.Y.E.E.E.L.M.n.^ ^ ^ Q t * .               ",
"            @ @ 3 R M.E.E.E.E.T.R.T.R.R.E.E.E.E.E.E.E.E.E.E.E.R.T.U.E.E.E.E.E.M.R 3 @ @             ",
"          * 9 e R / A.E.E.E.U.T.J.H.T.T.E.E.E.E.E.E.E.E.E.E.T.K.H.H.K.E.E.E.E.A./ D e 9 %           ",
"        . 2 y ! n.N.U.E.E.E.T.b.r.r.b.T.E.E.E.E.E.E.E.E.E.E.T.B.r.r.H.T.E.E.E.U.N.m.! y 2 .         ",
"      @ @ 0 E N.E.E.E.E.U.I.G.c.9.2.r.H.T.T.T.T.T.T.T.T.T.T.H.r.2.9.c.G.G.U.E.E.Y.E.A.E q # @       ",
"    > w t R ^ L.E.E.E.U.S.l.g.k.%.@.6.w.b.b.H.t.b.b.b.b.b.b.c.,.#.$.k.k.l.Z.U.E.E.E.A.^ E t 0 *     ",
". . 2 n ^ M.A.U.E.E.E.F.l.s.y.i.Y X.%.,.8.8.8.8.8.8.8.8.8.8.,.%.X.U y.i.s.l.I.E.E.E.Y.A.m.^ D 2 . . ",
". . 3 E L.E.E.E.E.U.I.Z.s.u.L y.Y T $.,.7.2.2.1.1.1.1.1.1.1.*.o.I L L P y.f.z.I.U.E.E.E.E.L.E 9 . . ",
". . 3 E A.E.E.E.I.z.l.f.p.y.L p.s.g.x.c.c.w.<.+.+.+.+.+.+.+.o.U L L L P y.p.s.l.Z.I.E.E.E.A.E 9 . . ",
". . 3 E A.E.E.E.F.j.p.y.y.L y.s.z.F.G.T.G.x.d.U U U U U U U U I P L L L P y.y.a.j.F.E.E.E.L.E 3 . . ",
". . 9 E L.E.E.E.S.f.u.P P P y.f.S.E.E.E.U.l.a.L L L L L L L L L L L L L L L P y.f.S.E.E.E.L.E 3 . . ",
". . 3 E L.E.E.E.S.f.y.L L L y.f.S.E.E.E.U.z.a.L L L L L L L L L L L L L L L L y.f.S.E.E.E.L.E 3 . . ",
". . 3 R L.E.E.E.S.f.y.L L L y.f.S.E.E.E.U.l.a.L L L L L L L L L L L L L L L L y.f.S.E.E.E.L.E 3 . . ",
". . 3 E L.E.E.E.S.f.u.P L L y.s.l.F.F.S.S.f.a.L L L L L L L L L L L L L L L P y.f.Z.E.E.E.L.E 3 . . ",
". . 3 E L.E.E.E.S.f.u.P L L I i.s.f.f.f.f.a.y.L L L L L L L L L L L L L L L P y.f.F.E.E.Y.L.E 3 . . ",
". . 3 E L.E.E.E.S.f.u.L L L P P y.y.y.y.y.I I L L L L L L L L L L L L L L L L y.f.S.E.E.E.L.E 3 . . ",
". . 3 W V.T.Y.Y.S.f.u.L L L L L L P P P L L L L L L L L L L L L L L L L L L L y.f.F.Y.R.T.V.W 2 . . ",
". . 4 m e.H.J.E.S.f.y.L L L L L L L L L L L L L L L L L L L L L L L L L L L L Y f.Z.R.K.H.e.m 4 . . ",
". . < A =.r.H.T.S.f.y.L L L L L L L L L L L L L L L L L L L L L L L L L L L L Y f.Z.R.J.r.-.A < . . ",
". . < A -.8.t.K.v.k.O.Y I I L L L L L L L L L L L L L L L L L L L L L L I U U O.k.v.J.t.8.=.A < . . ",
". . < A -.8.8.r.9.6.:.+.o.I L L L L L L L L L L L L L L L L L L L L L L I X.+.@.6.w.r.8.7.-.A < . . ",
". . < A -.3.3.7.3.3.3.>.+.I L L L L L L L L L L L L L L L L L L L L L L U o.>.3.7.7.7.3.3.-.A < . . ",
". . 1 B '  .-.;.3.;.;.1.*.o.X.X.X.X.X.X.X.X.X.Y X.X.X.X.X.X.X.X.X.X.X.X.o.*.1.;.;.3.;.-. .' f 1 . . ",
"    7 d S ( } ;.3.3.;.3.1.*.*.@.@.@.@.@.@.@.@.@.@.@.@.*.@.@.@.@.@.@.@.@.*.>.3.;.;.;.;.} _ S v 7     ",
"      s c S ` -.;.;.;.;.3.3.3.3.1.;.1.;.1.;.3.;.3.1.;.1.3.3.1.3.3.3.3.3.;.;.;.;.3.;.-.` C c a       ",
"        x N G ' ..} } | -.;.;.;.;.;.;.;.;.;.;.;.;.;.;.;.;.;.;.;.;.;.;.;.;.-.| } ....' ( N a         ",
"          N S S F F S ( ' -.;.;.;.;.;.;.;.;.;.;.;.;.;.;.;.;.;.;.;.;.;.;.-.' ( F S S S Z N           ",
"            s x c x x N (  .;.;.;.;.;.;.;.;.;.;.;.;.;.;.;.;.;.;.3.;.;.;.| ( N c s s s s             ",
"              a a a a M F ` } } } } } } } } } } } } } } } } } } } } } } ` F M a s a s               ",
"                        C S S S F Z F Z S S F S S S S S S S S S S S S S Z C                         ",
"                        s x s a x x x x x a x s a x a x a x x x x x x x s s                         ",
"                          a a a x i u , , , , , , , , , , , 8 u i a i x s                           ",
"                                    : = $ $ $ $ $ $ $ $ $ = = ;                                     ",
"                                      . . . . . . . . . . . .                                       ",
"                                      . . . . . . . . . . . .                                       "
};
