/* XPM */
static char *f8efc472f7af4012bfe323dfd3884517MQ0TuNVtdPn42Ees[] = {
/* columns rows colors chars-per-pixel */
"50 50 170 2 ",
"   c None",
".  c #0C1414",
"X  c #151B1B",
"o  c #191E1E",
"O  c #302B1F",
"+  c #1D2122",
"@  c #222526",
"#  c #2A2B2C",
"$  c #292B26",
"%  c #3B3C2D",
"&  c #323133",
"*  c #393638",
"=  c #3D393C",
"-  c #4C3D27",
";  c #4C3D28",
":  c #403C3F",
">  c #41412F",
",  c #4C432D",
"<  c #55432B",
"1  c #464532",
"2  c #494732",
"3  c #4C4933",
"4  c #4B473D",
"5  c #534330",
"6  c #555239",
"7  c #6E5332",
"8  c #795A35",
"9  c #423D40",
"0  c #464144",
"q  c #4A4346",
"w  c #4D4649",
"e  c #554B4A",
"r  c #5F504B",
"t  c #6D594D",
"y  c #67554A",
"u  c #735044",
"i  c #745A4B",
"p  c #795F4D",
"a  c #6B6447",
"s  c #7C634F",
"d  c #716946",
"f  c #6E6453",
"g  c #766351",
"h  c #7A6D5A",
"j  c #A15C3F",
"k  c #996E3E",
"l  c #CE673A",
"z  c #E56D37",
"x  c #E67039",
"c  c #E7793F",
"v  c #EB7B3F",
"b  c #866543",
"n  c #9A6F41",
"m  c #80764E",
"M  c #997B4B",
"N  c #997545",
"B  c #8A7F54",
"V  c #9B7452",
"C  c #92795B",
"Z  c #A36344",
"A  c #A86F4A",
"S  c #A37348",
"D  c #B17D45",
"F  c #A67B53",
"G  c #AC7C52",
"H  c #D27341",
"J  c #EA7D41",
"K  c #8E8255",
"L  c #928557",
"P  c #998454",
"I  c #998B5B",
"U  c #AA865A",
"Y  c #BC8E5C",
"T  c #9F8E66",
"R  c #A39460",
"E  c #AB9B64",
"W  c #AF9C6F",
"Q  c #BD9F6C",
"!  c #B7A46A",
"~  c #C2884B",
"^  c #CC8F4E",
"/  c #DA854B",
"(  c #C98F57",
")  c #D38A51",
"_  c #DF9C59",
"`  c #D89654",
"'  c #EE8444",
"]  c #EF8D4B",
"[  c #F28E4A",
"{  c #F3914C",
"}  c #EB9652",
"|  c #E69F56",
" . c #F69850",
".. c #F89D53",
"X. c #E8A056",
"o. c #E5A35C",
"O. c #EFA259",
"+. c #FBA658",
"@. c #FFAF5D",
"#. c #F7A759",
"$. c #FEB15F",
"%. c #D7A464",
"&. c #DEAA64",
"*. c #DAB06A",
"=. c #CBB674",
"-. c #CFB878",
";. c #D6BF79",
":. c #E6AD63",
">. c #F3AD60",
",. c #EEB265",
"<. c #E6B96E",
"1. c #FEB461",
"2. c #FFB866",
"3. c #F0B768",
"4. c #F6BC6A",
"5. c #FEBC6A",
"6. c #E6BD72",
"7. c #F2BD70",
"8. c #DCC47D",
"9. c #FFC16E",
"0. c #E7C87D",
"q. c #F1C572",
"w. c #FFC471",
"e. c #F3C976",
"r. c #FFC875",
"t. c #F2C778",
"y. c #F5CC79",
"u. c #FFCC79",
"i. c #F7D27F",
"p. c #FFD07D",
"a. c #E5CC82",
"s. c #F4CE83",
"d. c #F3CF8B",
"f. c #EED486",
"g. c #F2D587",
"h. c #FAD581",
"j. c #FDDA86",
"k. c #FDDE8A",
"l. c #F5D68B",
"z. c #F5D492",
"x. c #F6D79A",
"c. c #F9DD9B",
"v. c #F7DA9C",
"b. c #FFE28E",
"n. c #FFE293",
"m. c #FEE59E",
"M. c #F7DAA3",
"N. c #F9DDA1",
"B. c #FCE2A4",
"V. c #FFE8A7",
"C. c #FBE3AB",
"Z. c #FEE8AF",
"A. c #F9E1B5",
"S. c #FEEAB2",
"D. c #F9E5BD",
"F. c #FDEABA",
"G. c #FAE7C1",
"H. c #FCEBC4",
"J. c #FCEDCB",
"K. c #FFF0C6",
"L. c #FEF1CE",
"P. c #FCEFD2",
"I. c #FEF3D7",
"U. c #FDF4E4",
"Y. c #FFF8E4",
"T. c #FEF7EA",
"R. c #FFF9EC",
"E. c #FEFBF2",
"W. c #FFFDF9",
"Q. c white",
/* pixels */
". . 6 R g.b.b.b.k.i.e.q.q.q.q.q.q.q.q.q.q.q.q.q.q.q.q.q.q.q.q.q.q.y.i.b.b.b.b.8.L > . .             ",
". . 6 R g.b.b.b.j.h.e.q.q.q.q.q.q.q.q.q.q.q.q.q.q.q.q.q.q.q.q.q.q.y.i.b.b.b.b.8.L > . .             ",
"2 2 m ! l.n.V.V.V.v.x.z.d.h.y.y.y.y.y.y.i.y.y.e.y.y.y.i.y.i.y.y.i.i.i.i.b.b.b.0.E d 2 >             ",
"L L ! ;.b.m.Z.K.J.H.D.D.v.l.h.h.h.h.h.h.h.h.i.i.i.i.i.h.i.i.i.i.i.i.b.b.b.b.b.i.8.E K a > .         ",
"8.8.0.f.b.V.K.Y.E.E.T.I.D.m.k.k.j.j.k.k.k.k.b.b.b.b.b.b.b.j.b.j.b.b.b.b.b.b.b.b.0.8.=.K > . .       ",
"k.b.b.b.b.B.L.E.W.W.W.R.H.m.k.k.k.b.k.k.k.k.l.k.b.i.b.b.b.b.b.b.b.b.b.b.b.b.b.i.b.b.0.P 2 . .       ",
"i.i.h.i.g.B.K.E.W.W.W.T.F.c.h.h.h.h.h.h.h.h.h.h.i.i.i.i.i.i.i.i.i.i.i.b.j.i.p.u.y.u.q.P , . . .     ",
"y.y.y.y.e.v.H.E.W.W.W.Y.D.z.y.e.y.y.y.y.y.y.y.y.y.e.y.y.i.y.y.e.i.i.i.b.b.p.w.2.9.$.&.k , . . . . . ",
"q.q.q.q.q.z.D.R.W.W.W.U.A.d.q.q.q.q.q.q.q.q.q.q.q.q.q.q.q.q.q.q.q.y.i.b.i.u.9.@.@.@.| k - . . . . . ",
"q.q.q.q.q.d.C.J.I.P.J.D.M.s.q.q.q.q.q.q.q.q.q.q.q.q.q.q.q.q.q.q.q.y.i.b.i.u.$.@.@.$.| k - . . . . . ",
"q.q.q.q.q.g.n.Z.S.C.M.x.d.t.q.q.q.q.q.q.q.q.q.q.q.q.q.q.q.q.q.q.q.e.i.b.b.r.$.@.@.@.| k - . . . . . ",
"q.q.q.q.q.i.g.b.k.l.s.t.t.q.q.q.q.q.q.q.q.q.q.q.q.q.q.q.q.q.q.q.q.e.i.b.i.u.9.@.@.$.| k - . . . . . ",
"q.q.q.q.q.y.i.b.j.s.e.q.q.q.q.q.q.q.q.q.q.q.q.q.q.q.q.q.q.q.q.q.q.y.i.b.j.r.2.@.@.@.| k - . . . . . ",
"q.q.q.q.q.y.i.b.j.i.e.q.q.q.q.q.q.q.q.q.q.q.q.q.q.q.q.q.q.q.q.q.q.y.i.b.j.r.2.@.@.@.X.k - . . . . . ",
"q.q.q.q.q.y.h.b.k.i.e.q.q.q.q.q.q.q.q.q.q.q.q.q.q.q.q.q.q.q.q.q.q.y.i.j.i.r.2.@.@.$.| k - . . . . . ",
"q.q.q.q.q.y.h.b.k.i.e.q.q.q.q.q.q.q.q.q.q.q.q.q.q.q.q.q.q.q.q.q.q.y.i.b.j.r.2.@.@.@.| k - . . . . . ",
"q.q.q.q.q.y.i.b.i.i.e.q.q.q.q.q.q.q.q.q.q.q.q.q.q.q.q.q.q.q.q.q.q.e.h.b.h.r.2.@.$.@.| k - . . . . . ",
"q.q.q.q.q.i.i.b.b.i.e.q.q.q.q.q.q.q.q.q.q.q.q.q.q.q.q.q.q.q.q.q.q.y.h.b.j.r.2.@.@.@.| k - . . . . . ",
"q.q.q.q.q.y.i.b.b.i.e.q.q.q.q.q.q.q.q.q.q.q.q.q.q.q.q.q.q.q.q.q.q.y.h.j.j.r.2.@.$.@.X.k - . . . . . ",
"q.q.q.q.q.y.i.b.i.i.e.q.q.q.q.q.q.q.q.q.q.q.q.q.q.q.q.q.q.q.q.q.q.e.h.b.j.r.2.@.@.@.| k - . . . . . ",
"q.q.q.q.q.y.i.b.b.i.e.q.q.q.q.q.q.q.q.q.q.q.q.q.q.q.q.q.q.q.q.q.q.y.i.j.j.r.2.@.@.@.X.k - . . . . . ",
"q.q.q.q.q.y.i.b.b.i.e.q.q.q.q.q.q.q.q.q.q.q.q.q.q.q.q.q.q.q.q.q.q.e.h.b.j.r.2.$.@.@.| k - . . . . . ",
"q.q.q.q.q.y.i.b.i.i.e.q.q.q.q.q.q.q.q.q.q.q.q.q.q.q.q.q.q.q.q.q.q.y.i.b.j.w.2.@.@.@.| k - . . . . . ",
"q.q.q.q.q.i.i.b.b.i.e.q.q.q.q.q.q.q.q.q.q.q.q.q.q.q.q.q.q.q.q.q.q.y.h.j.j.r.2.@.$.@.| k - . . . . . ",
"q.q.q.q.q.y.i.i.i.i.y.q.q.q.q.q.q.q.q.q.q.q.q.q.q.q.q.q.q.q.q.q.q.y.h.k.j.r.2.@.@.@.| k - . . . . . ",
"q.q.q.e.y.y.i.b.b.i.i.e.e.e.y.y.e.e.e.e.e.e.e.e.e.e.y.y.e.e.e.e.t.y.h.b.j.u.9.1.1.$.| k - . . . . . ",
"q.q.y.y.i.i.b.b.b.i.i.i.i.i.i.i.i.i.i.i.i.i.i.i.i.i.i.i.i.i.i.i.h.h.j.b.j.h.u.9.5.1.| k - . . . . . ",
"q.q.y.i.b.i.b.b.b.b.b.i.i.b.b.i.i.b.b.i.b.i.b.i.b.i.b.i.i.b.b.i.j.k.k.b.b.j.j.p.w.1.| k - . . . . . ",
"e.i.i.i.b.b.b.b.b.b.b.b.b.b.b.b.b.b.b.b.b.b.b.b.b.b.b.b.b.b.b.b.k.b.b.b.b.b.b.k.u.5.X.n ; . . . . . ",
"i.i.i.i.b.b.b.b.b.i.p.p.u.p.u.p.p.p.u.u.p.p.u.p.u.p.u.p.p.p.p.u.p.h.j.k.n.b.b.k.h.r.:.M , . . . . . ",
"i.i.b.b.b.b.b.b.b.p.r.9.9.9.w.w.9.w.9.9.w.9.9.w.9.9.w.9.9.9.9.9.9.r.h.j.b.b.b.k.j.h.6.P 2 . . . . . ",
"b.b.b.b.b.b.b.b.i.r.2.$.$.$.$.$.$.$.$.$.$.$.$.$.$.$.$.$.$.$.$.$.1.5.u.j.b.b.b.b.b.k.0.I 3 . . . . . ",
"b.b.b.b.b.b.b.p.p.r.$.$.$.$.@.@.@.@.$.@.@.@.@.$.@.@.@.$.@.@.$.@.@.2.9.p.j.k.k.b.b.b.a.I 3 . . . . . ",
"b.b.b.b.b.i.i.p.9.5.$.$.@.@.@.@.@.@.@.@.@.$.@.@.@.@.@.@.@.@.@.@.@.$.5.9.u.h.j.n.b.b.a.I 3 . . . . . ",
"b.b.b.b.b.p.r.5.1.$.$.$.@.@.@.$.@.@.@.@.@.@.@.@.@.@.@.@.$.@.@.@.@.$.$.2.5.u.j.n.b.n.a.I 3 . . . . . ",
"b.i.b.i.i.p.9.1.$.$.$.$.@.@.@.@.$.@.@.@.@.@.$.@.@.$.@.@.@.@.@.@.$.$.$.$.1.7.0.a.a.a.;.B 1 . . . . . ",
"p.p.r.u.r.r.9.4.4.1.@.@.$.@.@.@.@.@.@.$.@.@.@.@.@.@.@.@.@.$.@.$.@.@.@.@.#.%.! W W W T a % . . . . . ",
"5.9.5.5.5.5.4.4.4.1.@.@.@.@.@.$.@.@.@.@.@.@.@.@.@.$.@.$.@.@.@.$.@.@.@.$.o.Y C h h h f 0 $ . . . . . ",
"$.@.@.@.$.1.4.q.4.4.@.@.@.@.@.@.@.@.@.@.@.@.@.@.@.@.@.@.@.@.@.@.@.@.@.$._ F t w w w 0 & + . . . . . ",
"$.$.@.@.$.1.4.q.4.#... .{  . . . . .{  .{ {  . .{  .{  .{  .{  .{ ..+.+._ F t w w w 0 & + . . . . . ",
"@.$.@.$.@.1.4.q.3.X.[ ' ' ' ' ' ' ' ' ' ' ' ' ' ' ' ' ' ' ' ' ' ' { ..+._ F t w w w 0 & + . . . . . ",
"@.@.@.$.@.1.4.4.,.X.v z x x x x x z x x x x x x x x x x x x x x x J { +._ F t w w w q & + . . . . . ",
"~ ~ ` X.#.2.4.q.,.} c z z z z z z z z z z z z z z z z z z z z z z J { #._ F t q 0 = * # + . . . . . ",
"8 8 N ^ #.1.4.q.,.} c z z z z z z z z z z z z z z z z z z z z z z J { #._ F t q = & $ @ o           ",
"O O 7 D #.1.4.7.,.} J x z z z z z z z z z z z z z z z z z z z z z J { +.| F t 0 & @ X X             ",
". . < k ` :.&.*.%.) H l l l l l l l l l l l l l l l l l l l l l l H / } ( V y 0 & + .               ",
". . < b G U U T F A Z j j j k j j j j j j j j j j j j j j j j j j Z A G V s r 0 * @                 ",
"      y p s s g g t u u u u 7 7 u u u u u u u u u u u u u u u u u u i p t y e w 9                   ",
"      w w w w w w w w w w w w w w w w w w w w w w w w w w w w w w w w w w w w w w                   ",
"      w w w w w w w w w w w w w w w w w w w w w w w w w w w w w w w w w w w w w w                   "
};
